<svg width="17" height="18" viewBox="0 0 17 18" fill="none" xmlns="http://www.w3.org/2000/svg">
<path d="M11.4673 1.5H5.53143C2.9531 1.5 1.41602 3.1275 1.41602 5.8575V12.135C1.41602 14.8725 2.9531 16.5 5.53143 16.5H11.4602C14.0385 16.5 15.5756 14.8725 15.5756 12.1425V5.8575C15.5827 3.1275 14.0456 1.5 11.4673 1.5ZM13.1248 9.3975L10.086 12.615C9.97977 12.7275 9.84518 12.78 9.7106 12.78C9.57602 12.78 9.44143 12.7275 9.33518 12.615C9.12977 12.3975 9.12977 12.0375 9.33518 11.82L11.4673 9.5625H4.24935C3.95893 9.5625 3.7181 9.3075 3.7181 9C3.7181 8.6925 3.95893 8.4375 4.24935 8.4375H11.4673L9.33518 6.18C9.12977 5.9625 9.12977 5.6025 9.33518 5.385C9.5406 5.1675 9.8806 5.1675 10.086 5.385L13.1248 8.6025C13.2239 8.7075 13.2806 8.85 13.2806 9C13.2806 9.15 13.2239 9.2925 13.1248 9.3975Z" fill="#572B04"/>
</svg>
