<svg width="24" height="25" viewBox="0 0 24 25" fill="none" xmlns="http://www.w3.org/2000/svg">
<path d="M16.7502 3.91135V2.35135C16.7502 1.94135 16.4102 1.60135 16.0002 1.60135C15.5902 1.60135 15.2502 1.94135 15.2502 2.35135V3.85135H8.75023V2.35135C8.75023 1.94135 8.41023 1.60135 8.00023 1.60135C7.59023 1.60135 7.25023 1.94135 7.25023 2.35135V3.91135C4.55023 4.16135 3.24023 5.77135 3.04023 8.16135C3.02023 8.45135 3.26023 8.69135 3.54023 8.69135H20.4602C20.7502 8.69135 20.9902 8.44135 20.9602 8.16135C20.7602 5.77135 19.4502 4.16135 16.7502 3.91135Z" fill="#98A2B3"/>
<path d="M20 10.1913H4C3.45 10.1913 3 10.6413 3 11.1913V17.3513C3 20.3513 4.5 22.3513 8 22.3513H16C19.5 22.3513 21 20.3513 21 17.3513V11.1913C21 10.6413 20.55 10.1913 20 10.1913ZM9.21 18.5613C9.16 18.6013 9.11 18.6513 9.06 18.6813C9 18.7213 8.94 18.7513 8.88 18.7713C8.82 18.8013 8.76 18.8213 8.7 18.8313C8.63 18.8413 8.57 18.8513 8.5 18.8513C8.37 18.8513 8.24 18.8213 8.12 18.7713C7.99 18.7213 7.89 18.6513 7.79 18.5613C7.61 18.3713 7.5 18.1113 7.5 17.8513C7.5 17.5913 7.61 17.3313 7.79 17.1413C7.89 17.0513 7.99 16.9813 8.12 16.9313C8.3 16.8513 8.5 16.8313 8.7 16.8713C8.76 16.8813 8.82 16.9013 8.88 16.9313C8.94 16.9513 9 16.9813 9.06 17.0213C9.11 17.0613 9.16 17.1013 9.21 17.1413C9.39 17.3313 9.5 17.5913 9.5 17.8513C9.5 18.1113 9.39 18.3713 9.21 18.5613ZM9.21 15.0613C9.02 15.2413 8.76 15.3513 8.5 15.3513C8.24 15.3513 7.98 15.2413 7.79 15.0613C7.61 14.8713 7.5 14.6113 7.5 14.3513C7.5 14.0913 7.61 13.8313 7.79 13.6413C8.07 13.3613 8.51 13.2713 8.88 13.4313C9.01 13.4813 9.12 13.5513 9.21 13.6413C9.39 13.8313 9.5 14.0913 9.5 14.3513C9.5 14.6113 9.39 14.8713 9.21 15.0613ZM12.71 18.5613C12.52 18.7413 12.26 18.8513 12 18.8513C11.74 18.8513 11.48 18.7413 11.29 18.5613C11.11 18.3713 11 18.1113 11 17.8513C11 17.5913 11.11 17.3313 11.29 17.1413C11.66 16.7713 12.34 16.7713 12.71 17.1413C12.89 17.3313 13 17.5913 13 17.8513C13 18.1113 12.89 18.3713 12.71 18.5613ZM12.71 15.0613C12.66 15.1013 12.61 15.1413 12.56 15.1813C12.5 15.2213 12.44 15.2513 12.38 15.2713C12.32 15.3013 12.26 15.3213 12.2 15.3313C12.13 15.3413 12.07 15.3513 12 15.3513C11.74 15.3513 11.48 15.2413 11.29 15.0613C11.11 14.8713 11 14.6113 11 14.3513C11 14.0913 11.11 13.8313 11.29 13.6413C11.38 13.5513 11.49 13.4813 11.62 13.4313C11.99 13.2713 12.43 13.3613 12.71 13.6413C12.89 13.8313 13 14.0913 13 14.3513C13 14.6113 12.89 14.8713 12.71 15.0613ZM16.21 18.5613C16.02 18.7413 15.76 18.8513 15.5 18.8513C15.24 18.8513 14.98 18.7413 14.79 18.5613C14.61 18.3713 14.5 18.1113 14.5 17.8513C14.5 17.5913 14.61 17.3313 14.79 17.1413C15.16 16.7713 15.84 16.7713 16.21 17.1413C16.39 17.3313 16.5 17.5913 16.5 17.8513C16.5 18.1113 16.39 18.3713 16.21 18.5613ZM16.21 15.0613C16.16 15.1013 16.11 15.1413 16.06 15.1813C16 15.2213 15.94 15.2513 15.88 15.2713C15.82 15.3013 15.76 15.3213 15.7 15.3313C15.63 15.3413 15.56 15.3513 15.5 15.3513C15.24 15.3513 14.98 15.2413 14.79 15.0613C14.61 14.8713 14.5 14.6113 14.5 14.3513C14.5 14.0913 14.61 13.8313 14.79 13.6413C14.89 13.5513 14.99 13.4813 15.12 13.4313C15.3 13.3513 15.5 13.3313 15.7 13.3713C15.76 13.3813 15.82 13.4013 15.88 13.4313C15.94 13.4513 16 13.4813 16.06 13.5213C16.11 13.5613 16.16 13.6013 16.21 13.6413C16.39 13.8313 16.5 14.0913 16.5 14.3513C16.5 14.6113 16.39 14.8713 16.21 15.0613Z" fill="#98A2B3"/>
</svg>
