<svg width="33" height="32" viewBox="0 0 33 32" fill="none" xmlns="http://www.w3.org/2000/svg">
<path d="M22.8343 4.74699V2.66699C22.8343 2.12033 22.381 1.66699 21.8343 1.66699C21.2876 1.66699 20.8343 2.12033 20.8343 2.66699V4.66699H12.1676V2.66699C12.1676 2.12033 11.7143 1.66699 11.1676 1.66699C10.621 1.66699 10.1676 2.12033 10.1676 2.66699V4.74699C6.56762 5.08033 4.82096 7.22699 4.55429 10.4137C4.52762 10.8003 4.84762 11.1203 5.22096 11.1203H27.781C28.1676 11.1203 28.4876 10.787 28.4476 10.4137C28.181 7.22699 26.4343 5.08033 22.8343 4.74699Z" fill="url(#paint0_linear_2334_30577)"/>
<path d="M27.1667 13.1201H5.83333C5.1 13.1201 4.5 13.7201 4.5 14.4535V22.6668C4.5 26.6668 6.5 29.3335 11.1667 29.3335H21.8333C26.5 29.3335 28.5 26.6668 28.5 22.6668V14.4535C28.5 13.7201 27.9 13.1201 27.1667 13.1201ZM12.78 24.2801C12.7133 24.3334 12.6467 24.4001 12.58 24.4401C12.5 24.4935 12.42 24.5335 12.34 24.5601C12.26 24.6001 12.18 24.6268 12.1 24.6401C12.0067 24.6535 11.9267 24.6668 11.8333 24.6668C11.66 24.6668 11.4867 24.6268 11.3267 24.5601C11.1533 24.4935 11.02 24.4001 10.8867 24.2801C10.6467 24.0268 10.5 23.6801 10.5 23.3335C10.5 22.9868 10.6467 22.6401 10.8867 22.3868C11.02 22.2668 11.1533 22.1735 11.3267 22.1068C11.5667 22.0001 11.8333 21.9735 12.1 22.0268C12.18 22.0401 12.26 22.0668 12.34 22.1068C12.42 22.1335 12.5 22.1735 12.58 22.2268C12.6467 22.2801 12.7133 22.3335 12.78 22.3868C13.02 22.6401 13.1667 22.9868 13.1667 23.3335C13.1667 23.6801 13.02 24.0268 12.78 24.2801ZM12.78 19.6135C12.5267 19.8535 12.18 20.0001 11.8333 20.0001C11.4867 20.0001 11.14 19.8535 10.8867 19.6135C10.6467 19.3601 10.5 19.0135 10.5 18.6668C10.5 18.3201 10.6467 17.9735 10.8867 17.7201C11.26 17.3468 11.8467 17.2268 12.34 17.4401C12.5133 17.5068 12.66 17.6001 12.78 17.7201C13.02 17.9735 13.1667 18.3201 13.1667 18.6668C13.1667 19.0135 13.02 19.3601 12.78 19.6135ZM17.4467 24.2801C17.1933 24.5201 16.8467 24.6668 16.5 24.6668C16.1533 24.6668 15.8067 24.5201 15.5533 24.2801C15.3133 24.0268 15.1667 23.6801 15.1667 23.3335C15.1667 22.9868 15.3133 22.6401 15.5533 22.3868C16.0467 21.8935 16.9533 21.8935 17.4467 22.3868C17.6867 22.6401 17.8333 22.9868 17.8333 23.3335C17.8333 23.6801 17.6867 24.0268 17.4467 24.2801ZM17.4467 19.6135C17.38 19.6668 17.3133 19.7201 17.2467 19.7735C17.1667 19.8268 17.0867 19.8668 17.0067 19.8935C16.9267 19.9335 16.8467 19.9601 16.7667 19.9734C16.6733 19.9868 16.5933 20.0001 16.5 20.0001C16.1533 20.0001 15.8067 19.8535 15.5533 19.6135C15.3133 19.3601 15.1667 19.0135 15.1667 18.6668C15.1667 18.3201 15.3133 17.9735 15.5533 17.7201C15.6733 17.6001 15.82 17.5068 15.9933 17.4401C16.4867 17.2268 17.0733 17.3468 17.4467 17.7201C17.6867 17.9735 17.8333 18.3201 17.8333 18.6668C17.8333 19.0135 17.6867 19.3601 17.4467 19.6135ZM22.1133 24.2801C21.86 24.5201 21.5133 24.6668 21.1667 24.6668C20.82 24.6668 20.4733 24.5201 20.22 24.2801C19.98 24.0268 19.8333 23.6801 19.8333 23.3335C19.8333 22.9868 19.98 22.6401 20.22 22.3868C20.7133 21.8935 21.62 21.8935 22.1133 22.3868C22.3533 22.6401 22.5 22.9868 22.5 23.3335C22.5 23.6801 22.3533 24.0268 22.1133 24.2801ZM22.1133 19.6135C22.0467 19.6668 21.98 19.7201 21.9133 19.7735C21.8333 19.8268 21.7533 19.8668 21.6733 19.8935C21.5933 19.9335 21.5133 19.9601 21.4333 19.9734C21.34 19.9868 21.2467 20.0001 21.1667 20.0001C20.82 20.0001 20.4733 19.8535 20.22 19.6135C19.98 19.3601 19.8333 19.0135 19.8333 18.6668C19.8333 18.3201 19.98 17.9735 20.22 17.7201C20.3533 17.6001 20.4867 17.5068 20.66 17.4401C20.9 17.3335 21.1667 17.3068 21.4333 17.3601C21.5133 17.3735 21.5933 17.4001 21.6733 17.4401C21.7533 17.4668 21.8333 17.5068 21.9133 17.5601C21.98 17.6135 22.0467 17.6668 22.1133 17.7201C22.3533 17.9735 22.5 18.3201 22.5 18.6668C22.5 19.0135 22.3533 19.3601 22.1133 19.6135Z" fill="url(#paint1_linear_2334_30577)"/>
<defs>
<linearGradient id="paint0_linear_2334_30577" x1="28.451" y1="6.39366" x2="4.55273" y2="6.39366" gradientUnits="userSpaceOnUse">
<stop stop-color="#6B0EAE"/>
<stop offset="1" stop-color="#FEB200"/>
</linearGradient>
<linearGradient id="paint1_linear_2334_30577" x1="28.5" y1="21.2268" x2="4.5" y2="21.2268" gradientUnits="userSpaceOnUse">
<stop stop-color="#6B0EAE"/>
<stop offset="1" stop-color="#FEB200"/>
</linearGradient>
</defs>
</svg>
