<svg width="120" height="120" viewBox="0 0 120 120" fill="none" xmlns="http://www.w3.org/2000/svg">
<path d="M83.7492 17.8V10C83.7492 7.95 82.0492 6.25 79.9992 6.25C77.9492 6.25 76.2492 7.95 76.2492 10V17.5H43.7492V10C43.7492 7.95 42.0492 6.25 39.9992 6.25C37.9492 6.25 36.2492 7.95 36.2492 10V17.8C22.7492 19.05 16.1992 27.1 15.1992 39.05C15.0992 40.5 16.2992 41.7 17.6992 41.7H102.299C103.749 41.7 104.949 40.45 104.799 39.05C103.799 27.1 97.2492 19.05 83.7492 17.8Z" fill="#F79009"/>
<path d="M100 49.2002H20C17.25 49.2002 15 51.4502 15 54.2002V85.0002C15 100 22.5 110 40 110H64.65C68.1 110 70.5 106.65 69.4 103.4C68.4 100.5 67.55 97.3002 67.55 95.0002C67.55 79.8502 79.9 67.5002 95.05 67.5002C96.5 67.5002 97.95 67.6002 99.35 67.8502C102.35 68.3002 105.05 65.9502 105.05 62.9502V54.2502C105 51.4502 102.75 49.2002 100 49.2002ZM46.05 88.5502C45.1 89.4502 43.8 90.0002 42.5 90.0002C41.85 90.0002 41.2 89.8502 40.6 89.6002C40 89.3502 39.45 89.0002 38.95 88.5502C38.05 87.6002 37.5 86.3502 37.5 85.0002C37.5 84.3502 37.65 83.7002 37.9 83.1002C38.15 82.4502 38.5 81.9502 38.95 81.4502C39.45 81.0002 40 80.6502 40.6 80.4002C42.4 79.6002 44.65 80.0502 46.05 81.4502C46.5 81.9502 46.85 82.4502 47.1 83.1002C47.35 83.7002 47.5 84.3502 47.5 85.0002C47.5 86.3502 46.95 87.6002 46.05 88.5502ZM46.05 71.0502C45.1 71.9502 43.8 72.5002 42.5 72.5002C41.85 72.5002 41.2 72.4002 40.6 72.1002C40 71.8502 39.45 71.5002 38.95 71.0502C38.05 70.1002 37.5 68.8002 37.5 67.5002C37.5 66.8502 37.65 66.2002 37.9 65.6002C38.15 65.0002 38.5 64.4502 38.95 63.9502C39.45 63.5002 40 63.1502 40.6 62.9002C42.4 62.1502 44.65 62.5502 46.05 63.9502C46.5 64.4502 46.85 65.0002 47.1 65.6002C47.35 66.2002 47.5 66.8502 47.5 67.5002C47.5 68.8002 46.95 70.1002 46.05 71.0502ZM64.6 69.4002C64.35 70.0002 64 70.5502 63.55 71.0502C63.05 71.5002 62.5 71.8502 61.9 72.1002C61.3 72.4002 60.65 72.5002 60 72.5002C58.7 72.5002 57.4 71.9502 56.45 71.0502C56 70.5502 55.65 70.0002 55.4 69.4002C55.15 68.8002 55 68.1502 55 67.5002C55 66.2002 55.55 64.9002 56.45 63.9502C57.85 62.5502 60.05 62.1002 61.9 62.9002C62.5 63.1502 63.05 63.5002 63.55 63.9502C64.45 64.9002 65 66.2002 65 67.5002C65 68.1502 64.9 68.8002 64.6 69.4002Z" fill="#F79009"/>
<path d="M95 75C83.95 75 75 83.95 75 95C75 106.05 83.95 115 95 115C106.05 115 115 106.05 115 95C115 83.95 106.05 75 95 75ZM103 103.2C102.25 103.95 101.3 104.3 100.35 104.3C99.4 104.3 98.45 103.95 97.7 103.2L95.05 100.55L92.3 103.3C91.55 104.05 90.6 104.4 89.65 104.4C88.7 104.4 87.75 104.05 87 103.3C85.55 101.85 85.55 99.45 87 98L89.75 95.25L87.1 92.6C85.65 91.15 85.65 88.75 87.1 87.3C88.55 85.85 90.95 85.85 92.4 87.3L95.05 90L97.55 87.5C99 86.05 101.4 86.05 102.85 87.5C104.3 88.95 104.3 91.35 102.85 92.8L100.35 95.3L103 97.95C104.45 99.4 104.45 101.75 103 103.2Z" fill="#D92D20"/>
</svg>
