<svg width="120" height="120" viewBox="0 0 120 120" fill="none" xmlns="http://www.w3.org/2000/svg">
<path d="M83.7492 17.8V10C83.7492 7.95 82.0492 6.25 79.9992 6.25C77.9492 6.25 76.2492 7.95 76.2492 10V17.5H43.7492V10C43.7492 7.95 42.0492 6.25 39.9992 6.25C37.9492 6.25 36.2492 7.95 36.2492 10V17.8C22.7492 19.05 16.1992 27.1 15.1992 39.05C15.0992 40.5 16.2992 41.7 17.6992 41.7H102.299C103.749 41.7 104.949 40.45 104.799 39.05C103.799 27.1 97.2492 19.05 83.7492 17.8Z" fill="#6A0DAD"/>
<path d="M100 49.2H20C17.25 49.2 15 51.45 15 54.2V85C15 100 22.5 110 40 110H64.65C68.1 110 70.5 106.65 69.4 103.4C68.4 100.5 67.55 97.2999 67.55 95C67.55 79.85 79.9 67.5 95.05 67.5C96.5 67.5 97.95 67.5999 99.35 67.8499C102.35 68.2999 105.05 65.95 105.05 62.95V54.25C105 51.45 102.75 49.2 100 49.2ZM46.05 88.5499C45.1 89.4499 43.8 90 42.5 90C41.85 90 41.2 89.85 40.6 89.6C40 89.3499 39.45 88.9999 38.95 88.5499C38.05 87.5999 37.5 86.3499 37.5 85C37.5 84.3499 37.65 83.7 37.9 83.1C38.15 82.45 38.5 81.95 38.95 81.45C39.45 81 40 80.65 40.6 80.4C42.4 79.6 44.65 80.05 46.05 81.45C46.5 81.95 46.85 82.45 47.1 83.1C47.35 83.7 47.5 84.3499 47.5 85C47.5 86.3499 46.95 87.5999 46.05 88.5499ZM46.05 71.0499C45.1 71.95 43.8 72.5 42.5 72.5C41.85 72.5 41.2 72.4 40.6 72.1C40 71.85 39.45 71.5 38.95 71.0499C38.05 70.1 37.5 68.7999 37.5 67.5C37.5 66.85 37.65 66.1999 37.9 65.5999C38.15 64.9999 38.5 64.45 38.95 63.95C39.45 63.5 40 63.15 40.6 62.9C42.4 62.15 44.65 62.55 46.05 63.95C46.5 64.45 46.85 64.9999 47.1 65.5999C47.35 66.1999 47.5 66.85 47.5 67.5C47.5 68.7999 46.95 70.1 46.05 71.0499ZM64.6 69.4C64.35 70 64 70.5499 63.55 71.0499C63.05 71.5 62.5 71.85 61.9 72.1C61.3 72.4 60.65 72.5 60 72.5C58.7 72.5 57.4 71.95 56.45 71.0499C56 70.5499 55.65 70 55.4 69.4C55.15 68.8 55 68.15 55 67.5C55 66.2 55.55 64.9 56.45 63.95C57.85 62.55 60.05 62.0999 61.9 62.9C62.5 63.15 63.05 63.5 63.55 63.95C64.45 64.9 65 66.2 65 67.5C65 68.15 64.9 68.8 64.6 69.4Z" fill="#6A0DAD"/>
<path d="M95 75C83.95 75 75 83.95 75 95C75 106.05 83.95 115 95 115C106.05 115 115 106.05 115 95C115 83.95 106.05 75 95 75ZM103 103.2C102.25 103.95 101.3 104.3 100.35 104.3C99.4 104.3 98.45 103.95 97.7 103.2L95.05 100.55L92.3 103.3C91.55 104.05 90.6 104.4 89.65 104.4C88.7 104.4 87.75 104.05 87 103.3C85.55 101.85 85.55 99.45 87 98L89.75 95.25L87.1 92.6C85.65 91.15 85.65 88.75 87.1 87.3C88.55 85.85 90.95 85.85 92.4 87.3L95.05 90L97.55 87.5C99 86.05 101.4 86.05 102.85 87.5C104.3 88.95 104.3 91.35 102.85 92.8L100.35 95.3L103 97.95C104.45 99.4 104.45 101.75 103 103.2Z" fill="#D92D20"/>
</svg>
