<svg width="72" height="72" viewBox="0 0 72 72" fill="none" xmlns="http://www.w3.org/2000/svg">
<circle cx="36" cy="36" r="36" fill="#D9D9D9"/>
<path d="M48 27.5714C48 33.4296 41.4233 56.5 34.5 56.5C27.5767 56.5 21 33.4296 21 27.5714C21 21.7133 27.5767 16 34.5 16C41.4233 16 48 21.7133 48 27.5714Z" fill="#F79009"/>
<path d="M27.5879 32.421L32.3775 37.2105L42.4889 27.0992L37.6993 22.3096" stroke="white" stroke-width="1.50523" stroke-linecap="round" stroke-linejoin="round"/>
<path d="M29.4531 30.5586L32.114 33.2195" stroke="white" stroke-width="1.50523" stroke-linecap="round" stroke-linejoin="round"/>
<path d="M31.5781 28.4297L34.239 31.0906" stroke="white" stroke-width="1.50523" stroke-linecap="round" stroke-linejoin="round"/>
<path d="M33.707 26.3013L36.3679 28.9622" stroke="white" stroke-width="1.50523" stroke-linecap="round" stroke-linejoin="round"/>
<path d="M35.8398 24.1724L38.5007 26.8332" stroke="white" stroke-width="1.50523" stroke-linecap="round" stroke-linejoin="round"/>
<path d="M30.7812 35.6143L40.8926 25.5029" stroke="white" stroke-width="1.50523" stroke-linecap="round" stroke-linejoin="round"/>
<line x1="10.647" y1="17.1278" x2="59.927" y2="55.82" stroke="#B42318" stroke-width="3"/>
<line x1="9.07651" y1="56.3922" x2="58.449" y2="17.8182" stroke="#B42318" stroke-width="3"/>
</svg>
