<svg width="25" height="24" viewBox="0 0 25 24" fill="none" xmlns="http://www.w3.org/2000/svg">
<path d="M2.5 11.46V16.46C2.5 18.75 4.35 20.6 6.64 20.6H18.35C20.64 20.6 22.5 18.74 22.5 16.45V11.46C22.5 10.79 21.96 10.25 21.29 10.25H3.71C3.04 10.25 2.5 10.79 2.5 11.46ZM8.5 17.25H6.5C6.09 17.25 5.75 16.91 5.75 16.5C5.75 16.09 6.09 15.75 6.5 15.75H8.5C8.91 15.75 9.25 16.09 9.25 16.5C9.25 16.91 8.91 17.25 8.5 17.25ZM15 17.25H11C10.59 17.25 10.25 16.91 10.25 16.5C10.25 16.09 10.59 15.75 11 15.75H15C15.41 15.75 15.75 16.09 15.75 16.5C15.75 16.91 15.41 17.25 15 17.25Z" fill="white"/>
<path d="M14 4.61V7.54C14 8.21 13.46 8.75 12.79 8.75H3.71C3.03 8.75 2.5 8.19 2.5 7.52C2.51 6.39 2.96 5.36 3.71 4.61C4.46 3.86 5.5 3.4 6.64 3.4H12.79C13.46 3.4 14 3.94 14 4.61Z" fill="white"/>
<path d="M20.47 2H17.53C16.26 2 15.5 2.76 15.5 4.03V6.97C15.5 8.24 16.26 9 17.53 9H20.47C21.74 9 22.5 8.24 22.5 6.97V4.03C22.5 2.76 21.74 2 20.47 2ZM21.13 4.45L18.76 7.22C18.67 7.33 18.53 7.4 18.39 7.4C18.38 7.4 18.38 7.4 18.37 7.4C18.23 7.4 18.1 7.35 18 7.25L16.9 6.17C16.7 5.97 16.7 5.64 16.9 5.44C17.1 5.24 17.43 5.23 17.63 5.44L18.33 6.13L20.33 3.79C20.52 3.57 20.84 3.55 21.06 3.73C21.29 3.91 21.31 4.24 21.13 4.45Z" fill="white"/>
</svg>
