<svg width="24" height="24" viewBox="0 0 24 24" fill="none" xmlns="http://www.w3.org/2000/svg">
<path d="M22 21.25C22 21.66 21.66 22 21.25 22H2.75C2.34 22 2 21.66 2 21.25C2 20.84 2.34 20.5 2.75 20.5H21.25C21.66 20.5 22 20.84 22 21.25Z" fill="#2F034E"/>
<path d="M15.3914 4.52001L4.65141 15.26C4.24141 15.67 3.58141 15.67 3.18141 15.26H3.17141C1.78141 13.86 1.78141 11.6 3.17141 10.21L10.3214 3.06001C11.7214 1.66001 13.9814 1.66001 15.3814 3.06001C15.7914 3.45001 15.7914 4.12001 15.3914 4.52001Z" fill="#2F034E"/>
<path d="M20.8214 8.49001L17.7714 5.44001C17.3614 5.03001 16.7014 5.03001 16.3014 5.44001L5.56141 16.18C5.15141 16.58 5.15141 17.24 5.56141 17.65L8.61141 20.71C10.0114 22.1 12.2714 22.1 13.6714 20.71L20.8114 13.56C22.2314 12.16 22.2314 9.89001 20.8214 8.49001ZM12.7614 17.52L11.5514 18.74C11.3014 18.99 10.8914 18.99 10.6314 18.74C10.3814 18.49 10.3814 18.08 10.6314 17.82L11.8514 16.6C12.0914 16.36 12.5114 16.36 12.7614 16.6C13.0114 16.85 13.0114 17.28 12.7614 17.52ZM16.7314 13.55L14.2914 16C14.0414 16.24 13.6314 16.24 13.3714 16C13.1214 15.75 13.1214 15.34 13.3714 15.08L15.8214 12.63C16.0614 12.39 16.4814 12.39 16.7314 12.63C16.9814 12.89 16.9814 13.3 16.7314 13.55Z" fill="#2F034E"/>
</svg>
