<svg width="24" height="25" viewBox="0 0 24 25" fill="none" xmlns="http://www.w3.org/2000/svg">
<path d="M5.33984 2.85156H7.24023C8.2462 2.8516 8.93203 3.11581 9.36719 3.55176C9.80216 3.98771 10.0642 4.67398 10.0596 5.67969V7.58203C10.0595 8.58791 9.79593 9.27438 9.35938 9.71094C8.92282 10.1475 8.23635 10.4111 7.23047 10.4111H5.33008C4.32415 10.4111 3.63781 10.1474 3.20117 9.71094C2.76461 9.27438 2.50008 8.58791 2.5 7.58203V5.68164C2.5 4.67551 2.76465 3.98926 3.20215 3.55273C3.63982 3.11621 4.32841 2.85159 5.33984 2.85156Z" fill="#98A2B3" stroke="#98A2B3"/>
<path d="M16.7695 2.85156H18.6699C19.6758 2.85164 20.3623 3.11618 20.7988 3.55273C21.2353 3.98937 21.499 4.67572 21.499 5.68164V7.58203C21.4989 8.58791 21.2354 9.27438 20.7988 9.71094C20.3623 10.1475 19.6758 10.4111 18.6699 10.4111H16.7695C15.7636 10.4111 15.0773 10.1474 14.6406 9.71094C14.2041 9.27438 13.9395 8.58791 13.9395 7.58203V5.68164C13.9395 4.67551 14.204 3.98936 14.6406 3.55273C15.0773 3.11611 15.7634 2.85156 16.7695 2.85156Z" fill="#98A2B3" stroke="#98A2B3"/>
<path d="M16.7695 14.2812H18.6699C19.6758 14.2813 20.3623 14.5459 20.7988 14.9824C21.2353 15.4191 21.499 16.1054 21.499 17.1113V19.0117C21.4989 20.0176 21.2354 20.7041 20.7988 21.1406C20.3623 21.5772 19.6758 21.8407 18.6699 21.8408H16.7695C15.7636 21.8408 15.0773 21.5771 14.6406 21.1406C14.2041 20.7041 13.9395 20.0176 13.9395 19.0117V17.1113C13.9395 16.1052 14.204 15.419 14.6406 14.9824C15.0773 14.5458 15.7634 14.2812 16.7695 14.2812Z" fill="#98A2B3" stroke="#98A2B3"/>
<path d="M5.33984 14.2812H7.24023C8.24639 14.2813 8.93215 14.5455 9.36719 14.9824C9.80224 15.4194 10.0642 16.1078 10.0596 17.1191V19.0215C10.0595 20.0274 9.7959 20.7138 9.35938 21.1504C8.92282 21.5869 8.23635 21.8515 7.23047 21.8516H5.33008C4.32395 21.8516 3.63769 21.5869 3.20117 21.1494C2.76459 20.7118 2.50008 20.0231 2.5 19.0117V17.1113C2.5 16.1052 2.76465 15.4189 3.20215 14.9824C3.63982 14.5459 4.32841 14.2813 5.33984 14.2812Z" fill="#98A2B3" stroke="#98A2B3"/>
</svg>
