<svg width="20" height="20" viewBox="0 0 20 20" fill="none" xmlns="http://www.w3.org/2000/svg">
<path d="M10.0013 1.66675C5.40964 1.66675 1.66797 5.40841 1.66797 10.0001C1.66797 14.5917 5.40964 18.3334 10.0013 18.3334C14.593 18.3334 18.3346 14.5917 18.3346 10.0001C18.3346 5.40841 14.593 1.66675 10.0013 1.66675ZM13.6263 12.9751C13.5096 13.1751 13.3013 13.2834 13.0846 13.2834C12.9763 13.2834 12.868 13.2584 12.768 13.1917L10.1846 11.6501C9.54297 11.2667 9.06797 10.4251 9.06797 9.68342V6.26675C9.06797 5.92508 9.3513 5.64175 9.69297 5.64175C10.0346 5.64175 10.318 5.92508 10.318 6.26675V9.68342C10.318 9.98341 10.568 10.4251 10.8263 10.5751L13.4096 12.1167C13.7096 12.2917 13.8096 12.6751 13.6263 12.9751Z" fill="#98A2B3"/>
</svg>
