<svg width="17" height="17" viewBox="0 0 17 17" fill="none" xmlns="http://www.w3.org/2000/svg">
<path d="M15.8214 3.49001L12.7714 0.440007C12.3614 0.0300073 11.7014 0.0300073 11.3014 0.440007L0.561406 11.18C0.151406 11.58 0.151406 12.24 0.561406 12.65L3.61141 15.71C5.01141 17.1 7.27141 17.1 8.67141 15.71L15.8114 8.56001C17.2314 7.16001 17.2314 4.89001 15.8214 3.49001ZM7.76141 12.52L6.55141 13.74C6.30141 13.99 5.89141 13.99 5.63141 13.74C5.38141 13.49 5.38141 13.08 5.63141 12.82L6.85141 11.6C7.09141 11.36 7.51141 11.36 7.76141 11.6C8.01141 11.85 8.01141 12.28 7.76141 12.52ZM11.7314 8.55001L9.29141 11C9.04141 11.24 8.63141 11.24 8.37141 11C8.12141 10.75 8.12141 10.34 8.37141 10.08L10.8214 7.63001C11.0614 7.39001 11.4814 7.39001 11.7314 7.63001C11.9814 7.89001 11.9814 8.30001 11.7314 8.55001Z" fill="#2F034E"/>
</svg>
