<svg width="28" height="28" viewBox="0 0 28 28" fill="none" xmlns="http://www.w3.org/2000/svg">
<path d="M19.5841 0.666992H8.41073C3.5574 0.666992 0.664062 3.56033 0.664062 8.41366V19.5737C0.664062 24.4403 3.5574 27.3337 8.41073 27.3337H19.5707C24.4241 27.3337 27.3174 24.4403 27.3174 19.587V8.41366C27.3307 3.56033 24.4374 0.666992 19.5841 0.666992ZM12.5974 21.347C12.2107 21.7337 11.4774 22.107 10.9441 22.187L7.66406 22.6537C7.54406 22.667 7.42406 22.6803 7.30406 22.6803C6.7574 22.6803 6.25073 22.4937 5.89073 22.1337C5.45073 21.6937 5.26406 21.0537 5.37073 20.347L5.8374 17.067C5.9174 16.5203 6.2774 15.8003 6.6774 15.4137L12.6241 9.46699C12.7307 9.74699 12.8374 10.027 12.9841 10.347C13.1174 10.627 13.2641 10.9203 13.4241 11.187C13.5574 11.4137 13.7041 11.627 13.8241 11.787C13.9707 12.0137 14.1441 12.227 14.2507 12.347C14.3174 12.4403 14.3707 12.507 14.3974 12.5337C14.7307 12.9337 15.1174 13.307 15.4507 13.587C15.5441 13.6803 15.5974 13.7337 15.6241 13.747C15.8241 13.907 16.0241 14.067 16.1974 14.187C16.4107 14.347 16.6241 14.4937 16.8507 14.6137C17.1174 14.7737 17.4107 14.9203 17.7041 15.067C18.0107 15.2003 18.2907 15.3203 18.5707 15.4137L12.5974 21.347ZM21.1574 12.787L19.9307 14.027C19.8507 14.107 19.7441 14.147 19.6374 14.147C19.5974 14.147 19.5441 14.147 19.5174 14.1337C16.8107 13.3603 14.6507 11.2003 13.8774 8.49366C13.8374 8.34699 13.8774 8.18699 13.9841 8.09366L15.2241 6.85366C17.2507 4.82699 19.1841 4.86699 21.1707 6.85366C22.1841 7.86699 22.6774 8.84033 22.6774 9.85366C22.6641 10.8137 22.1707 11.7737 21.1574 12.787Z" fill="#572B04"/>
</svg>
