<svg width="20" height="20" viewBox="0 0 20 20" fill="none" xmlns="http://www.w3.org/2000/svg">
<path d="M12.9823 10C12.9823 11.65 11.649 12.9833 9.99896 12.9833C8.34896 12.9833 7.01562 11.65 7.01562 10C7.01562 8.35 8.34896 7.01666 9.99896 7.01666C11.649 7.01666 12.9823 8.35 12.9823 10Z" stroke="#EAECF0" stroke-width="1.5" stroke-linecap="round" stroke-linejoin="round"/>
<path d="M9.99792 16.8916C12.9396 16.8916 15.6813 15.1583 17.5896 12.1583C18.3396 10.9833 18.3396 9.00831 17.5896 7.83331C15.6813 4.83331 12.9396 3.09998 9.99792 3.09998C7.05625 3.09998 4.31458 4.83331 2.40625 7.83331C1.65625 9.00831 1.65625 10.9833 2.40625 12.1583C4.31458 15.1583 7.05625 16.8916 9.99792 16.8916Z" stroke="#EAECF0" stroke-width="1.5" stroke-linecap="round" stroke-linejoin="round"/>
</svg>
