<svg width="40" height="40" viewBox="0 0 40 40" fill="none" xmlns="http://www.w3.org/2000/svg">
<path d="M35.5332 14.1228C35.8685 14.7285 35.3898 15.4167 34.6975 15.4167H4.33594C3.78365 15.4167 3.33594 14.969 3.33594 14.4167V10.7C3.33594 6.63334 6.63594 3.33334 10.7026 3.33334H14.5693C17.2859 3.33334 18.1359 4.21668 19.2193 5.66668L21.5526 8.76668C22.0693 9.45001 22.1359 9.53334 23.1026 9.53334H27.7526C31.0989 9.53334 34.0171 11.3842 35.5332 14.1228Z" fill="#2F034E"/>
<path d="M36.6393 18.9127C36.6374 18.3617 36.1903 17.9161 35.6393 17.9161L4.33592 17.9166C3.78364 17.9167 3.33594 18.3644 3.33594 18.9166V27.75C3.33594 32.6667 7.33594 36.6667 12.2526 36.6667H27.7526C32.6693 36.6667 36.6693 32.6667 36.6693 27.75L36.6393 18.9127ZM24.1693 27.9167H21.3526V30.8333C21.3526 31.5167 20.7859 32.0833 20.1026 32.0833C19.4026 32.0833 18.8526 31.5167 18.8526 30.8333V27.9167H15.8359C15.1526 27.9167 14.5859 27.35 14.5859 26.6667C14.5859 25.9833 15.1526 25.4167 15.8359 25.4167H18.8526V22.5C18.8526 21.8167 19.4026 21.25 20.1026 21.25C20.7859 21.25 21.3526 21.8167 21.3526 22.5V25.4167H24.1693C24.8526 25.4167 25.4193 25.9833 25.4193 26.6667C25.4193 27.35 24.8526 27.9167 24.1693 27.9167Z" fill="#2F034E"/>
</svg>
