<svg width="32" height="32" viewBox="0 0 32 32" fill="none" xmlns="http://www.w3.org/2000/svg">
<path d="M15.9993 2.66667C8.65268 2.66667 2.66602 8.65334 2.66602 16C2.66602 23.3467 8.65268 29.3333 15.9993 29.3333C23.346 29.3333 29.3327 23.3467 29.3327 16C29.3327 8.65334 23.346 2.66667 15.9993 2.66667ZM21.3327 17H16.9993V21.3333C16.9993 21.88 16.546 22.3333 15.9993 22.3333C15.4527 22.3333 14.9993 21.88 14.9993 21.3333V17H10.666C10.1193 17 9.66602 16.5467 9.66602 16C9.66602 15.4533 10.1193 15 10.666 15H14.9993V10.6667C14.9993 10.12 15.4527 9.66667 15.9993 9.66667C16.546 9.66667 16.9993 10.12 16.9993 10.6667V15H21.3327C21.8793 15 22.3327 15.4533 22.3327 16C22.3327 16.5467 21.8793 17 21.3327 17Z" fill="#2F034E"/>
</svg>
