<svg width="40" height="40" viewBox="0 0 40 40" fill="none" xmlns="http://www.w3.org/2000/svg">
<path d="M34.9503 13.3337H30.0503C27.9337 13.3337 26.667 12.067 26.667 9.95033V5.05033C26.667 2.93366 27.9337 1.66699 30.0503 1.66699H34.9503C37.067 1.66699 38.3337 2.93366 38.3337 5.05033V9.95033C38.3337 12.067 37.067 13.3337 34.9503 13.3337ZM35.317 7.81699C35.117 7.61699 34.8503 7.51699 34.5837 7.51699C34.317 7.51699 34.0503 7.61699 33.8503 7.81699L33.5503 8.11699V4.38366C33.5503 3.80033 33.0837 3.33366 32.5003 3.33366C31.917 3.33366 31.4503 3.80033 31.4503 4.38366V8.11699L31.1503 7.81699C30.7503 7.41699 30.0837 7.41699 29.6837 7.81699C29.2837 8.21699 29.2837 8.88366 29.6837 9.28366L31.767 11.367C31.8503 11.4503 31.967 11.517 32.0837 11.567C32.117 11.5837 32.1503 11.5837 32.1837 11.6003C32.267 11.6337 32.3503 11.6503 32.4503 11.6503C32.4837 11.6503 32.517 11.6503 32.5503 11.6503C32.667 11.6503 32.767 11.6337 32.8837 11.5837C32.9003 11.5837 32.9003 11.5837 32.917 11.5837C33.0337 11.5337 33.1337 11.467 33.217 11.3837C33.2337 11.367 33.2337 11.367 33.2503 11.367L35.3337 9.28366C35.7337 8.88366 35.7337 8.21699 35.317 7.81699Z" fill="#572B04"/>
<path d="M14.9999 17.2995C17.1906 17.2995 18.9665 15.5236 18.9665 13.3329C18.9665 11.1421 17.1906 9.36621 14.9999 9.36621C12.8091 9.36621 11.0332 11.1421 11.0332 13.3329C11.0332 15.5236 12.8091 17.2995 14.9999 17.2995Z" fill="#572B04"/>
<path d="M34.9497 13.333H34.1663V21.0163L33.9497 20.833C32.6497 19.7163 30.5497 19.7163 29.2497 20.833L22.3163 26.783C21.0163 27.8997 18.9163 27.8997 17.6163 26.783L17.0497 26.3163C15.8663 25.283 13.983 25.183 12.6497 26.083L6.41634 30.2663C6.04967 29.333 5.83301 28.2497 5.83301 26.983V13.0163C5.83301 8.31634 8.31634 5.83301 13.0163 5.83301H26.6663V5.04967C26.6663 4.38301 26.783 3.81634 27.0497 3.33301H13.0163C6.94967 3.33301 3.33301 6.94967 3.33301 13.0163V26.983C3.33301 28.7997 3.64967 30.383 4.26634 31.7163C5.69967 34.883 8.76634 36.6663 13.0163 36.6663H26.983C33.0497 36.6663 36.6663 33.0497 36.6663 26.983V12.9497C36.183 13.2163 35.6163 13.333 34.9497 13.333Z" fill="#572B04"/>
</svg>
