<svg width="24" height="25" viewBox="0 0 24 25" fill="none" xmlns="http://www.w3.org/2000/svg">
<path d="M20.97 1.35132H18.03C16.76 1.35132 16 2.11132 16 3.38132V6.32132C16 7.59132 16.76 8.35132 18.03 8.35132H20.97C22.24 8.35132 23 7.59132 23 6.32132V3.38132C23 2.11132 22.24 1.35132 20.97 1.35132ZM21.63 3.80132L19.26 6.57132C19.17 6.68132 19.03 6.75132 18.89 6.75132C18.88 6.75132 18.88 6.75132 18.87 6.75132C18.73 6.75132 18.6 6.70132 18.5 6.60132L17.4 5.52132C17.2 5.32132 17.2 4.99132 17.4 4.79132C17.6 4.59132 17.93 4.58132 18.13 4.79132L18.83 5.48132L20.83 3.14132C21.02 2.92132 21.34 2.90132 21.56 3.08132C21.79 3.26132 21.81 3.59132 21.63 3.80132Z" fill="#98A2B3"/>
<path d="M8.99719 10.7313C10.3116 10.7313 11.3772 9.66575 11.3772 8.35131C11.3772 7.03688 10.3116 5.97131 8.99719 5.97131C7.68275 5.97131 6.61719 7.03688 6.61719 8.35131C6.61719 9.66575 7.68275 10.7313 8.99719 10.7313Z" fill="#98A2B3"/>
<path d="M7.80957 2.85132H15.541C15.5142 3.0134 15.5023 3.18037 15.501 3.35132H7.80957C6.3157 3.35139 5.09233 3.74727 4.24414 4.59546C3.39595 5.44365 3.00008 6.66701 3 8.16089V16.5417C3.00005 17.36 3.14047 18.0723 3.38477 18.6941L3.6123 19.2732L4.12891 18.9265L7.86816 16.4167L7.87012 16.4158C8.48848 15.9986 9.36795 16.0525 9.90137 16.5183L9.90625 16.5222L9.91211 16.5271L10.252 16.8064C11.2198 17.6311 12.7509 17.6294 13.7158 16.8005L17.876 13.2312V13.2302C18.4685 12.7215 19.4514 12.7216 20.0439 13.2302L20.0469 13.2332L20.1768 13.3425L21 14.0398V8.85034C21.171 8.84902 21.3379 8.8362 21.5 8.80933V16.5417C21.4999 18.2621 20.989 19.5752 20.1064 20.4578C19.2239 21.3403 17.9108 21.8512 16.1904 21.8513H7.80957C5.56061 21.8512 3.98486 20.9781 3.16895 19.4822L3.01367 19.1716L2.89551 18.8933C2.63757 18.2283 2.50004 17.445 2.5 16.5417V8.16089C2.50009 6.44053 3.011 5.12742 3.89355 4.24487C4.77611 3.36232 6.08922 2.8514 7.80957 2.85132Z" fill="#98A2B3" stroke="#98A2B3"/>
</svg>
