<svg width="40" height="41" viewBox="0 0 40 41" fill="none" xmlns="http://www.w3.org/2000/svg">
<path d="M34.9493 13.6203H30.0494C27.9327 13.6203 26.666 12.3536 26.666 10.2369V5.33695C26.666 3.22028 27.9327 1.95361 30.0494 1.95361H34.9493C37.066 1.95361 38.3327 3.22028 38.3327 5.33695V10.2369C38.3327 12.3536 37.066 13.6203 34.9493 13.6203ZM35.316 8.10361C35.116 7.90361 34.8493 7.80361 34.5827 7.80361C34.316 7.80361 34.0493 7.90361 33.8493 8.10361L33.5493 8.40361V4.67028C33.5493 4.08695 33.0827 3.62028 32.4993 3.62028C31.916 3.62028 31.4494 4.08695 31.4494 4.67028V8.40361L31.1493 8.10361C30.7493 7.70361 30.0827 7.70361 29.6827 8.10361C29.2827 8.50361 29.2827 9.17028 29.6827 9.57028L31.766 11.6536C31.8493 11.7369 31.966 11.8036 32.0827 11.8536C32.116 11.8703 32.1493 11.8703 32.1827 11.8869C32.266 11.9203 32.3493 11.9369 32.4493 11.9369C32.4827 11.9369 32.516 11.9369 32.5493 11.9369C32.666 11.9369 32.766 11.9203 32.8827 11.8703C32.8993 11.8703 32.8993 11.8703 32.916 11.8703C33.0327 11.8203 33.1327 11.7536 33.216 11.6703C33.2327 11.6536 33.2327 11.6536 33.2494 11.6536L35.3327 9.57028C35.7327 9.17028 35.7327 8.50361 35.316 8.10361Z" fill="#2F034E"/>
<path d="M14.9999 17.5871C17.1906 17.5871 18.9665 15.8112 18.9665 13.6205C18.9665 11.4297 17.1906 9.65381 14.9999 9.65381C12.8091 9.65381 11.0332 11.4297 11.0332 13.6205C11.0332 15.8112 12.8091 17.5871 14.9999 17.5871Z" fill="#2F034E"/>
<path d="M34.9507 13.6206H34.1673V21.3039L33.9507 21.1206C32.6507 20.0039 30.5507 20.0039 29.2507 21.1206L22.3173 27.0706C21.0173 28.1873 18.9173 28.1873 17.6173 27.0706L17.0507 26.6039C15.8673 25.5706 13.984 25.4706 12.6507 26.3706L6.41732 30.5539C6.05065 29.6206 5.83398 28.5373 5.83398 27.2706V13.3039C5.83398 8.60394 8.31732 6.12061 13.0173 6.12061H26.6673V5.33727C26.6673 4.67061 26.784 4.10394 27.0507 3.62061H13.0173C6.95065 3.62061 3.33398 7.23727 3.33398 13.3039V27.2706C3.33398 29.0873 3.65065 30.6706 4.26732 32.0039C5.70065 35.1706 8.76732 36.9539 13.0173 36.9539H26.984C33.0507 36.9539 36.6673 33.3373 36.6673 27.2706V13.2373C36.184 13.5039 35.6173 13.6206 34.9507 13.6206Z" fill="#2F034E"/>
</svg>
