<svg width="12" height="12" viewBox="0 0 12 12" fill="none" xmlns="http://www.w3.org/2000/svg">
<path d="M4.33874 2.15463C5.07782 0.829293 5.44707 0.166626 5.99949 0.166626C6.5519 0.166626 6.92115 0.829293 7.66024 2.15463L7.85157 2.49763C8.06157 2.87446 8.16657 3.06288 8.3299 3.18713C8.49324 3.31138 8.6974 3.35746 9.10574 3.44963L9.47674 3.53363C10.9117 3.85854 11.6287 4.02071 11.7996 4.56963C11.9699 5.11796 11.4811 5.69021 10.5028 6.83413L10.2497 7.12988C9.97198 7.45479 9.83257 7.61754 9.77015 7.81821C9.70774 8.01946 9.72874 8.23646 9.77074 8.66988L9.80924 9.06479C9.95682 10.5914 10.0309 11.3544 9.58407 11.6933C9.13724 12.0322 8.46524 11.723 7.1224 11.1047L6.77415 10.9449C6.39265 10.7687 6.2019 10.6812 5.99949 10.6812C5.79707 10.6812 5.60632 10.7687 5.22482 10.9449L4.87715 11.1047C3.53374 11.723 2.86174 12.0322 2.41549 11.6939C1.96807 11.3544 2.04215 10.5914 2.18974 9.06479L2.22824 8.67046C2.27024 8.23646 2.29124 8.01946 2.22824 7.81879C2.1664 7.61754 2.02699 7.45479 1.74932 7.13046L1.49615 6.83413C0.517903 5.69079 0.0290694 5.11854 0.199403 4.56963C0.369736 4.02071 1.08782 3.85796 2.52282 3.53363L2.89382 3.44963C3.30157 3.35746 3.50515 3.31138 3.66907 3.18713C3.83299 3.06288 3.9374 2.87446 4.1474 2.49763L4.33874 2.15463Z" fill="#F79009"/>
</svg>
