<svg width="18" height="20" viewBox="0 0 18 20" fill="none" xmlns="http://www.w3.org/2000/svg">
<path d="M17.9098 9.11995V4.72995C17.9098 3.90995 17.2898 2.97995 16.5198 2.66995L10.9498 0.389946C9.69984 -0.120054 8.28984 -0.120054 7.03984 0.389946L1.46984 2.66995C0.709844 2.97995 0.0898438 3.90995 0.0898438 4.72995V9.11995C0.0898438 14.0099 3.63984 18.5899 8.48984 19.9299C8.81984 20.0199 9.17984 20.0199 9.50984 19.9299C14.3598 18.5899 17.9098 14.0099 17.9098 9.11995ZM9.74984 10.8699V13.4999C9.74984 13.9099 9.40984 14.2499 8.99984 14.2499C8.58984 14.2499 8.24984 13.9099 8.24984 13.4999V10.8699C7.23984 10.5499 6.49984 9.60995 6.49984 8.49995C6.49984 7.11995 7.61984 5.99995 8.99984 5.99995C10.3798 5.99995 11.4998 7.11995 11.4998 8.49995C11.4998 9.61995 10.7598 10.5499 9.74984 10.8699Z" fill="#2F034E"/>
</svg>
