<svg width="24" height="25" viewBox="0 0 24 25" fill="none" xmlns="http://www.w3.org/2000/svg">
<path d="M9.09473 3.66608C10.3479 2.69535 12.3328 2.58719 13.7217 3.37994L13.9912 3.55084L19.752 7.58112C20.221 7.90958 20.6648 8.44824 20.9922 9.07526C21.3196 9.70244 21.5078 10.3755 21.5078 10.9512V17.7315C21.5077 20.0051 19.6623 21.8514 17.3887 21.8516H6.6084C4.33609 21.8516 2.48851 19.9968 2.48828 17.7217V10.8214L2.49609 10.6163C2.53278 10.1276 2.69611 9.57198 2.95703 9.04205C3.2178 8.51248 3.55965 8.0413 3.92676 7.70905L4.08594 7.57526L9.09473 3.66608ZM11.998 14.1016C11.312 14.1018 10.748 14.6656 10.748 15.3516V18.3516C10.7482 19.0376 11.3121 19.6015 11.998 19.6016C12.6841 19.6016 13.2479 19.0376 13.248 18.3516V15.3516C13.248 14.6655 12.6842 14.1016 11.998 14.1016Z" fill="#98A2B3" stroke="#98A2B3"/>
</svg>
