<svg width="32" height="32" viewBox="0 0 32 32" fill="none" xmlns="http://www.w3.org/2000/svg">
<path d="M26.3865 19.9066C23.6399 22.64 19.7065 23.48 16.2532 22.4L9.9732 28.6666C9.51987 29.1333 8.62654 29.4133 7.98654 29.32L5.07987 28.92C4.11987 28.7866 3.22654 27.88 3.07987 26.92L2.67987 24.0133C2.58654 23.3733 2.8932 22.48 3.3332 22.0266L9.59987 15.76C8.5332 12.2933 9.35987 8.35997 12.1065 5.62664C16.0399 1.6933 22.4265 1.6933 26.3732 5.62664C30.3199 9.55997 30.3199 15.9733 26.3865 19.9066Z" stroke="#667085" stroke-width="1.5" stroke-miterlimit="10" stroke-linecap="round" stroke-linejoin="round"/>
<path d="M9.18652 23.32L12.2532 26.3867" stroke="#667085" stroke-width="1.5" stroke-miterlimit="10" stroke-linecap="round" stroke-linejoin="round"/>
<path d="M19.333 14.6667C20.4376 14.6667 21.333 13.7713 21.333 12.6667C21.333 11.5621 20.4376 10.6667 19.333 10.6667C18.2284 10.6667 17.333 11.5621 17.333 12.6667C17.333 13.7713 18.2284 14.6667 19.333 14.6667Z" stroke="#667085" stroke-width="1.5" stroke-linecap="round" stroke-linejoin="round"/>
</svg>
