<svg width="22" height="32" viewBox="0 0 22 32" fill="none" xmlns="http://www.w3.org/2000/svg">
<g clip-path="url(#clip0_753_191811)">
<path d="M6.06641 23.7048C6.97856 24.8843 7.80875 26.1266 8.55095 27.4229C9.18465 28.6421 9.44882 29.4688 9.91194 30.9377C10.196 31.7493 10.4527 31.9915 11.0045 31.9915C11.6059 31.9915 11.8788 31.5795 12.0896 30.9422C12.5274 29.5549 12.8709 28.4962 13.4128 27.4958C14.4762 25.5645 15.7975 23.8483 17.0959 22.1988C17.4474 21.732 19.7199 19.0124 20.743 16.8664C20.743 16.8664 22.0004 14.5092 22.0004 11.217C22.0004 8.1375 20.7603 6.00169 20.7603 6.00169L17.1901 6.97181L15.0219 12.7659L14.4854 13.5649L14.3782 13.7096L14.2355 13.8908L13.9851 14.1802L13.6273 14.5432L11.6965 16.1392L6.86941 18.967L6.06641 23.7048Z" fill="#34A853"/>
<path d="M1.08398 16.4701C2.2621 19.2004 4.53395 21.6005 6.07102 23.7068L14.2352 13.8945C14.2352 13.8945 13.085 15.4208 10.9986 15.4208C8.67459 15.4208 6.79711 13.5378 6.79711 11.1636C6.79711 9.53539 7.76253 8.41687 7.76253 8.41687L2.22051 9.92357L1.08398 16.4701Z" fill="#FBBC04"/>
<path d="M14.3264 0.504589C17.0378 1.39161 19.3587 3.2538 20.7625 5.99978L14.2377 13.8889C14.2377 13.8889 15.2031 12.7501 15.2031 11.1321C15.2031 8.70251 13.1867 6.8875 11.0085 6.8875C8.94864 6.8875 7.76562 8.4112 7.76562 8.4112V3.44118L14.3264 0.504501V0.504589Z" fill="#4285F4"/>
<path d="M2.58008 3.99041C4.19957 2.02446 7.04926 0 10.978 0C12.8841 0 14.3201 0.507728 14.3201 0.507728L7.75996 8.41556H3.11203L2.58008 3.99041Z" fill="#2E90FA"/>
<path d="M1.08384 16.4701C1.08384 16.4701 0 14.3166 0 11.1969C0 8.24823 1.12973 5.6708 2.57941 3.9904L7.76299 8.41626L1.08384 16.4701Z" fill="#EA4335"/>
</g>
<defs>
<clipPath id="clip0_753_191811">
<rect width="22" height="32" fill="white"/>
</clipPath>
</defs>
</svg>
