<svg width="24" height="20" viewBox="0 0 24 20" fill="none" xmlns="http://www.w3.org/2000/svg">
<path d="M10.3359 15.8333C10.3359 16.75 11.0859 17.5 12.0026 17.5C12.9193 17.5 13.6693 16.75 13.6693 15.8333C13.6693 14.9167 12.9193 14.1667 12.0026 14.1667C11.0859 14.1667 10.3359 14.9167 10.3359 15.8333Z" stroke="#EAECF0" stroke-width="1.5"/>
<path d="M10.3359 4.16668C10.3359 5.08334 11.0859 5.83334 12.0026 5.83334C12.9193 5.83334 13.6693 5.08334 13.6693 4.16668C13.6693 3.25001 12.9193 2.50001 12.0026 2.50001C11.0859 2.50001 10.3359 3.25001 10.3359 4.16668Z" stroke="#EAECF0" stroke-width="1.5"/>
<path d="M10.3359 9.99999C10.3359 10.9167 11.0859 11.6667 12.0026 11.6667C12.9193 11.6667 13.6693 10.9167 13.6693 9.99999C13.6693 9.08332 12.9193 8.33332 12.0026 8.33332C11.0859 8.33332 10.3359 9.08332 10.3359 9.99999Z" stroke="#EAECF0" stroke-width="1.5"/>
</svg>
