<svg width="25" height="24" viewBox="0 0 25 24" fill="none" xmlns="http://www.w3.org/2000/svg">
<path d="M18.9704 16.83L19.3604 19.99C19.4604 20.82 18.5704 21.4 17.8604 20.97L14.4004 18.91C14.1604 18.77 14.1004 18.47 14.2304 18.23C14.7304 17.31 15.0004 16.27 15.0004 15.23C15.0004 11.57 11.8604 8.59 8.00038 8.59C7.21038 8.59 6.44038 8.71 5.72038 8.95C5.35038 9.07 4.99038 8.73 5.08038 8.35C5.99038 4.71 9.49038 2 13.6704 2C18.5504 2 22.5004 5.69 22.5004 10.24C22.5004 12.94 21.1104 15.33 18.9704 16.83Z" fill="#DC6803"/>
<path d="M13.5 15.2298C13.5 16.4198 13.06 17.5198 12.32 18.3898C11.33 19.5898 9.76 20.3598 8 20.3598L5.39 21.9098C4.95 22.1798 4.39 21.8098 4.45 21.2998L4.7 19.3298C3.36 18.3998 2.5 16.9098 2.5 15.2298C2.5 13.4698 3.44 11.9198 4.88 10.9998C5.77 10.4198 6.84 10.0898 8 10.0898C11.04 10.0898 13.5 12.3898 13.5 15.2298Z" fill="#DC6803"/>
</svg>
