<svg width="20" height="20" viewBox="0 0 20 20" fill="none" xmlns="http://www.w3.org/2000/svg">
<path d="M14.9807 8.99167V12.325C14.9807 12.5417 14.9724 12.75 14.9474 12.95C14.7557 15.2 13.4307 16.3167 10.9891 16.3167H10.6557C10.4474 16.3167 10.2474 16.4167 10.1224 16.5833L9.12241 17.9167C8.68074 18.5083 7.96406 18.5083 7.52239 17.9167L6.52238 16.5833C6.41405 16.4417 6.1724 16.3167 5.98906 16.3167H5.65574C2.9974 16.3167 1.66406 15.6583 1.66406 12.325V8.99167C1.66406 6.55001 2.78907 5.22501 5.03074 5.03334C5.23074 5.00834 5.43907 5 5.65574 5H10.9891C13.6474 5 14.9807 6.33334 14.9807 8.99167Z" stroke="#EAECF0" stroke-width="1.5" stroke-miterlimit="10" stroke-linecap="round" stroke-linejoin="round"/>
<path d="M18.3146 5.65836V8.99169C18.3146 11.4417 17.1896 12.7584 14.9479 12.95C14.9729 12.75 14.9813 12.5417 14.9813 12.325V8.99169C14.9813 6.33336 13.6479 5.00002 10.9896 5.00002H5.65625C5.43958 5.00002 5.23125 5.00836 5.03125 5.03336C5.22292 2.79169 6.54792 1.66669 8.98958 1.66669H14.3229C16.9812 1.66669 18.3146 3.00003 18.3146 5.65836Z" stroke="#EAECF0" stroke-width="1.5" stroke-miterlimit="10" stroke-linecap="round" stroke-linejoin="round"/>
<path d="M11.2489 11.0417H11.2564" stroke="#EAECF0" stroke-width="2" stroke-linecap="round" stroke-linejoin="round"/>
<path d="M8.32698 11.0417H8.33448" stroke="#EAECF0" stroke-width="2" stroke-linecap="round" stroke-linejoin="round"/>
<path d="M5.41292 11.0417H5.42042" stroke="#EAECF0" stroke-width="2" stroke-linecap="round" stroke-linejoin="round"/>
</svg>
