<svg width="32" height="32" viewBox="0 0 32 32" fill="none" xmlns="http://www.w3.org/2000/svg">
<path d="M24.6265 22.44L25.1465 26.6533C25.2799 27.76 24.0932 28.5333 23.1465 27.96L18.5332 25.2133C18.2132 25.0267 18.1332 24.6267 18.3065 24.3067C18.9732 23.08 19.3332 21.6933 19.3332 20.3067C19.3332 15.4267 15.1465 11.4533 9.99986 11.4533C8.94653 11.4533 7.91986 11.6133 6.95986 11.9333C6.46652 12.0933 5.98653 11.64 6.10653 11.1333C7.31986 6.28 11.9865 2.66666 17.5599 2.66666C24.0665 2.66666 29.3332 7.58666 29.3332 13.6533C29.3332 17.2533 27.4799 20.44 24.6265 22.44Z" fill="#2F034E"/>
<path d="M17.3327 20.3067C17.3327 21.8933 16.746 23.36 15.7593 24.52C14.4393 26.12 12.346 27.1467 9.99935 27.1467L6.51935 29.2133C5.93268 29.5733 5.18602 29.08 5.26602 28.4L5.59935 25.7733C3.81268 24.5333 2.66602 22.5467 2.66602 20.3067C2.66602 17.96 3.91935 15.8933 5.83935 14.6667C7.02602 13.8933 8.45268 13.4533 9.99935 13.4533C14.0527 13.4533 17.3327 16.52 17.3327 20.3067Z" fill="#2F034E"/>
</svg>
