<svg width="24" height="25" viewBox="0 0 24 25" fill="none" xmlns="http://www.w3.org/2000/svg">
<path d="M18.4704 17.1813L18.8604 20.3413C18.9604 21.1713 18.0704 21.7513 17.3604 21.3213L13.9004 19.2613C13.6604 19.1213 13.6004 18.8213 13.7304 18.5813C14.2304 17.6613 14.5004 16.6213 14.5004 15.5813C14.5004 11.9213 11.3604 8.94135 7.50038 8.94135C6.71038 8.94135 5.94038 9.06135 5.22038 9.30135C4.85038 9.42135 4.49038 9.08135 4.58038 8.70135C5.49038 5.06135 8.99038 2.35135 13.1704 2.35135C18.0504 2.35135 22.0004 6.04135 22.0004 10.5913C22.0004 13.2913 20.6104 15.6813 18.4704 17.1813Z" fill="#98A2B3"/>
<path d="M7.5 10.9413C10.2961 10.9413 12.4998 13.0486 12.5 15.581C12.5 16.578 12.1551 17.5079 11.5615 18.2675L11.4395 18.4169L11.4346 18.4228C10.5419 19.5048 9.11451 20.2109 7.5 20.2109H7.3623L7.24512 20.2812L4.63477 21.831L4.62891 21.8349C4.60535 21.8494 4.58562 21.8532 4.56934 21.8525C4.5507 21.8516 4.52807 21.8445 4.50586 21.83C4.46194 21.8012 4.44225 21.7597 4.44629 21.7138L4.69629 19.7441L4.73438 19.4433L4.48535 19.2704C3.26814 18.4257 2.5 17.0832 2.5 15.581C2.50012 14.1054 3.23824 12.785 4.40918 11.9365L4.64941 11.7724L4.65332 11.7704C5.46147 11.2438 6.43626 10.9413 7.5 10.9413Z" fill="#98A2B3" stroke="#98A2B3"/>
</svg>
