<svg width="24" height="24" viewBox="0 0 24 24" fill="none" xmlns="http://www.w3.org/2000/svg">
<path d="M12 15.5C14.21 15.5 16 13.71 16 11.5V6C16 3.79 14.21 2 12 2C9.79 2 8 3.79 8 6V11.5C8 13.71 9.79 15.5 12 15.5Z" stroke="#6A0DAD" stroke-width="1.5" stroke-linecap="round" stroke-linejoin="round"/>
<path d="M4.35156 9.64999V11.35C4.35156 15.57 7.78156 19 12.0016 19C16.2216 19 19.6516 15.57 19.6516 11.35V9.64999" stroke="#6A0DAD" stroke-width="1.5" stroke-linecap="round" stroke-linejoin="round"/>
<path d="M10.6094 6.43C11.5094 6.1 12.4894 6.1 13.3894 6.43" stroke="#6A0DAD" stroke-width="1.5" stroke-linecap="round" stroke-linejoin="round"/>
<path d="M11.2031 8.55001C11.7331 8.41001 12.2831 8.41001 12.8131 8.55001" stroke="#6A0DAD" stroke-width="1.5" stroke-linecap="round" stroke-linejoin="round"/>
<path d="M12 19V22" stroke="#6A0DAD" stroke-width="1.5" stroke-linecap="round" stroke-linejoin="round"/>
</svg>
