<svg width="32" height="32" viewBox="0 0 32 32" fill="none" xmlns="http://www.w3.org/2000/svg">
<path d="M25.5593 8.85336C24.986 5.96003 22.8393 4.69336 19.8526 4.69336H8.14596C4.62596 4.69336 2.2793 6.45336 2.2793 10.56V17.4267C2.2793 20.3867 3.49263 22.12 5.49263 22.8667C5.78596 22.9734 6.10596 23.0667 6.4393 23.12C6.97263 23.24 7.54596 23.2934 8.14596 23.2934H19.866C23.386 23.2934 25.7326 21.5334 25.7326 17.4267V10.56C25.7326 9.93336 25.6793 9.37336 25.5593 8.85336ZM7.37263 16C7.37263 16.5467 6.9193 17 6.37263 17C5.82596 17 5.37263 16.5467 5.37263 16V12C5.37263 11.4534 5.82596 11 6.37263 11C6.9193 11 7.37263 11.4534 7.37263 12V16ZM13.9993 17.52C12.0526 17.52 10.4793 15.9467 10.4793 14C10.4793 12.0534 12.0526 10.48 13.9993 10.48C15.946 10.48 17.5193 12.0534 17.5193 14C17.5193 15.9467 15.946 17.52 13.9993 17.52ZM22.6126 16C22.6126 16.5467 22.1593 17 21.6126 17C21.066 17 20.6126 16.5467 20.6126 16V12C20.6126 11.4534 21.066 11 21.6126 11C22.1593 11 22.6126 11.4534 22.6126 12V16Z" fill="url(#paint0_linear_774_143522)"/>
<path d="M29.733 14.5597V21.4264C29.733 25.5331 27.3864 27.3064 23.853 27.3064H12.1464C11.1464 27.3064 10.253 27.1597 9.47969 26.8664C8.85303 26.6397 8.30636 26.3064 7.86636 25.8797C7.62636 25.6531 7.81303 25.2931 8.14636 25.2931H19.853C24.7864 25.2931 27.7197 22.3597 27.7197 17.4397V10.5597C27.7197 10.2397 28.0797 10.0397 28.3064 10.2797C29.213 11.2397 29.733 12.6397 29.733 14.5597Z" fill="url(#paint1_linear_774_143522)"/>
<defs>
<linearGradient id="paint0_linear_774_143522" x1="25.7326" y1="13.9934" x2="2.2793" y2="13.9934" gradientUnits="userSpaceOnUse">
<stop stop-color="#6B0EAE"/>
<stop offset="1" stop-color="#FEB200"/>
</linearGradient>
<linearGradient id="paint1_linear_774_143522" x1="29.733" y1="18.7401" x2="7.75781" y2="18.7401" gradientUnits="userSpaceOnUse">
<stop stop-color="#6B0EAE"/>
<stop offset="1" stop-color="#FEB200"/>
</linearGradient>
</defs>
</svg>
