<svg width="24" height="25" viewBox="0 0 24 25" fill="none" xmlns="http://www.w3.org/2000/svg">
<path d="M19.1709 6.99109C18.7409 4.82109 17.1309 3.87109 14.8909 3.87109H6.11094C3.47094 3.87109 1.71094 5.19109 1.71094 8.27109V13.4211C1.71094 15.6411 2.62094 16.9411 4.12094 17.5011C4.34094 17.5811 4.58094 17.6511 4.83094 17.6911C5.23094 17.7811 5.66094 17.8211 6.11094 17.8211H14.9009C17.5409 17.8211 19.3009 16.5011 19.3009 13.4211V8.27109C19.3009 7.80109 19.2609 7.38109 19.1709 6.99109ZM5.53094 12.3511C5.53094 12.7611 5.19094 13.1011 4.78094 13.1011C4.37094 13.1011 4.03094 12.7611 4.03094 12.3511V9.35109C4.03094 8.94109 4.37094 8.60109 4.78094 8.60109C5.19094 8.60109 5.53094 8.94109 5.53094 9.35109V12.3511ZM10.5009 13.4911C9.04094 13.4911 7.86094 12.3111 7.86094 10.8511C7.86094 9.39109 9.04094 8.21109 10.5009 8.21109C11.9609 8.21109 13.1409 9.39109 13.1409 10.8511C13.1409 12.3111 11.9609 13.4911 10.5009 13.4911ZM16.9609 12.3511C16.9609 12.7611 16.6209 13.1011 16.2109 13.1011C15.8009 13.1011 15.4609 12.7611 15.4609 12.3511V9.35109C15.4609 8.94109 15.8009 8.60109 16.2109 8.60109C16.6209 8.60109 16.9609 8.94109 16.9609 9.35109V12.3511Z" fill="#98A2B3"/>
<path d="M22.2998 11.2718V16.4218C22.2998 19.5018 20.5398 20.8318 17.8898 20.8318H9.10977C8.35977 20.8318 7.68977 20.7218 7.10977 20.5018C6.63977 20.3318 6.22977 20.0818 5.89977 19.7618C5.71977 19.5918 5.85977 19.3218 6.10977 19.3218H14.8898C18.5898 19.3218 20.7898 17.1218 20.7898 13.4318V8.27184C20.7898 8.03184 21.0598 7.88184 21.2298 8.06184C21.9098 8.78184 22.2998 9.83184 22.2998 11.2718Z" fill="#98A2B3"/>
</svg>
