<svg width="32" height="32" viewBox="0 0 32 32" fill="none" xmlns="http://www.w3.org/2000/svg">
<path d="M25.334 10.667C27.5431 10.667 29.334 8.87613 29.334 6.66699C29.334 4.45785 27.5431 2.66699 25.334 2.66699C23.1248 2.66699 21.334 4.45785 21.334 6.66699C21.334 8.87613 23.1248 10.667 25.334 10.667Z" fill="#572B04"/>
<path d="M26.3993 12.56C26.3727 12.56 26.346 12.5733 26.3193 12.5733C26.186 12.6 26.0527 12.6133 25.906 12.64C25.346 12.6933 24.746 12.6667 24.1327 12.5467C23.9727 12.5067 23.8393 12.48 23.6927 12.4267C23.2527 12.32 22.8393 12.1467 22.4527 11.92C22.2927 11.84 22.1327 11.7333 21.986 11.64C21.346 11.2 20.7994 10.6533 20.3594 10.0133C20.266 9.86667 20.1593 9.70667 20.0793 9.54667C19.8527 9.16 19.6793 8.74667 19.5727 8.30667C19.5194 8.16 19.4927 8.02667 19.4527 7.86667C19.3327 7.25333 19.306 6.65333 19.3594 6.09333C19.386 5.94667 19.3993 5.81333 19.426 5.68C19.426 5.65333 19.4394 5.62667 19.4394 5.6C19.5993 4.77333 18.986 4 18.1327 4H10.026C9.83935 4 9.65268 4.01333 9.47935 4.02667C9.31935 4.04 9.17268 4.05333 9.01268 4.08C8.85268 4.09333 8.69268 4.12 8.54602 4.14667C5.33268 4.61333 3.27935 6.65333 2.81268 9.88C2.78602 10.0267 2.75935 10.1867 2.74602 10.3467C2.71935 10.5067 2.70602 10.6533 2.69268 10.8133C2.67935 10.9867 2.66602 11.1733 2.66602 11.36V21.9733C2.66602 22.16 2.67935 22.3467 2.69268 22.52C2.70602 22.68 2.71935 22.8267 2.74602 22.9867C2.75935 23.1467 2.78602 23.3067 2.81268 23.4533C3.27935 26.68 5.33268 28.72 8.54602 29.1867C8.69268 29.2133 8.85268 29.24 9.01268 29.2533C9.17268 29.28 9.31935 29.2933 9.47935 29.3067C9.65268 29.32 9.83935 29.3333 10.026 29.3333H20.6393C20.826 29.3333 21.0127 29.32 21.186 29.3067C21.346 29.2933 21.4927 29.28 21.6527 29.2533C21.8127 29.24 21.9727 29.2133 22.1194 29.1867C25.3327 28.72 27.386 26.68 27.8527 23.4533C27.8793 23.3067 27.906 23.1467 27.9193 22.9867C27.946 22.8267 27.9593 22.68 27.9727 22.52C27.986 22.3467 27.9993 22.16 27.9993 21.9733V13.8667C27.9993 13.0133 27.226 12.4 26.3993 12.56ZM8.99935 16.6667H15.666C16.2127 16.6667 16.666 17.12 16.666 17.6667C16.666 18.2133 16.2127 18.6667 15.666 18.6667H8.99935C8.45268 18.6667 7.99935 18.2133 7.99935 17.6667C7.99935 17.12 8.45268 16.6667 8.99935 16.6667ZM20.9993 24H8.99935C8.45268 24 7.99935 23.5467 7.99935 23C7.99935 22.4533 8.45268 22 8.99935 22H20.9993C21.546 22 21.9993 22.4533 21.9993 23C21.9993 23.5467 21.546 24 20.9993 24Z" fill="#572B04"/>
</svg>
