<svg width="24" height="24" viewBox="0 0 24 24" fill="none" xmlns="http://www.w3.org/2000/svg">
<path d="M11.9392 2.21L9.52922 7.82H7.11922C6.71922 7.82 6.32922 7.85 5.94922 7.93L6.94922 5.53L6.98922 5.44L7.04922 5.28C7.07922 5.21 7.09922 5.15 7.12922 5.1C8.28922 2.41 9.58922 1.57 11.9392 2.21Z" fill="#6A0DAD"/>
<path d="M18.7311 8.09L18.7111 8.08C18.1111 7.91 17.5011 7.82 16.8811 7.82H10.6211L12.8711 2.59L12.9011 2.52C13.0411 2.57 13.1911 2.64 13.3411 2.69L15.5511 3.62C16.7811 4.13 17.6411 4.66 18.1711 5.3C18.2611 5.42 18.3411 5.53 18.4211 5.66C18.5111 5.8 18.5811 5.94 18.6211 6.09C18.6611 6.18 18.6911 6.26 18.7111 6.35C18.8611 6.86 18.8711 7.44 18.7311 8.09Z" fill="#6A0DAD"/>
<path d="M18.2883 9.52C17.8383 9.39 17.3683 9.32 16.8783 9.32H7.11828C6.43828 9.32 5.79828 9.45 5.19828 9.71C3.45828 10.46 2.23828 12.19 2.23828 14.2V16.15C2.23828 16.39 2.25828 16.62 2.28828 16.86C2.50828 20.04 4.20828 21.74 7.38828 21.95C7.61828 21.98 7.84828 22 8.09828 22H15.8983C19.5983 22 21.5483 20.24 21.7383 16.74C21.7483 16.55 21.7583 16.35 21.7583 16.15V14.2C21.7583 11.99 20.2883 10.13 18.2883 9.52ZM14.4983 16.19H12.7483V18C12.7483 18.41 12.4083 18.75 11.9983 18.75C11.5883 18.75 11.2483 18.41 11.2483 18V16.19H9.49828C9.08828 16.19 8.74828 15.86 8.74828 15.44C8.74828 15.03 9.08828 14.69 9.49828 14.69H11.2483V13C11.2483 12.59 11.5883 12.25 11.9983 12.25C12.4083 12.25 12.7483 12.59 12.7483 13V14.69H14.4983C14.9083 14.69 15.2483 15.03 15.2483 15.44C15.2483 15.86 14.9083 16.19 14.4983 16.19Z" fill="#6A0DAD"/>
</svg>
