<svg width="25" height="24" viewBox="0 0 25 24" fill="none" xmlns="http://www.w3.org/2000/svg">
<path d="M9.68827 5.23876C8.19983 5.63758 6.88459 6.5164 5.94653 7.73891C5.00846 8.96142 4.5 10.4593 4.5 12.0002C4.5 13.5412 5.00846 15.0391 5.94653 16.2616C6.88459 17.4841 8.19983 18.3629 9.68827 18.7617L10.2059 16.8299C9.14274 16.545 8.20328 15.9173 7.53323 15.044C6.86319 14.1708 6.5 13.1009 6.5 12.0002C6.5 10.8996 6.86319 9.82965 7.53323 8.95643C8.20328 8.08321 9.14274 7.45549 10.2059 7.17061L9.68827 5.23876Z" fill="#F4E2FE"/>
<path d="M15.3117 5.23876C16.8002 5.63758 18.1154 6.5164 19.0535 7.73891C19.9915 8.96142 20.5 10.4593 20.5 12.0002C20.5 13.5412 19.9915 15.0391 19.0535 16.2616C18.1154 17.4841 16.8002 18.3629 15.3117 18.7617L14.7941 16.8299C15.8573 16.545 16.7967 15.9173 17.4668 15.044C18.1368 14.1708 18.5 13.1009 18.5 12.0002C18.5 10.8996 18.1368 9.82965 17.4668 8.95643C16.7967 8.08321 15.8573 7.45549 14.7941 7.17061L15.3117 5.23876Z" fill="#F4E2FE"/>
</svg>
