<svg width="20" height="20" viewBox="0 0 20 20" fill="none" xmlns="http://www.w3.org/2000/svg">
<path d="M10.0013 7.1875C9.52375 7.1875 9.07625 7.06187 8.68875 6.84125C9.21375 6.21625 9.53 5.41062 9.53 4.53125C9.53094 3.68611 9.23295 2.86786 8.68875 2.22125C9.04232 2.02054 9.43725 1.90367 9.84311 1.87964C10.249 1.85562 10.6549 1.92508 11.0297 2.08268C11.4045 2.24027 11.7381 2.4818 12.0048 2.78865C12.2715 3.09549 12.4643 3.45948 12.5681 3.85255C12.672 4.24562 12.6843 4.6573 12.604 5.05586C12.5237 5.45442 12.353 5.82923 12.105 6.15141C11.857 6.47359 11.5384 6.73455 11.1737 6.91418C10.8089 7.09381 10.4078 7.18732 10.0013 7.1875ZM10.9388 9.6875C10.9388 9.09625 10.7331 8.55312 10.3906 8.125H12.5013C12.9157 8.125 13.3131 8.28962 13.6061 8.58265C13.8991 8.87567 14.0638 9.2731 14.0638 9.6875V14.0625C14.0639 14.68 13.9232 15.2895 13.6525 15.8445C13.3818 16.3995 12.9881 16.8855 12.5013 17.2655C12.0146 17.6455 11.4476 17.9096 10.8435 18.0376C10.2394 18.1657 9.61405 18.1543 9.015 18.0044C9.61452 17.5371 10.0994 16.9391 10.4328 16.256C10.7662 15.5728 10.9392 14.8226 10.9388 14.0625V9.6875ZM14.0638 7.1875C13.5863 7.1875 13.1388 7.06187 12.7513 6.84125C13.2762 6.21625 13.5919 5.41062 13.5919 4.53125C13.593 3.68619 13.2952 2.86795 12.7513 2.22125C13.1048 2.02054 13.4997 1.90367 13.9056 1.87964C14.3115 1.85562 14.7174 1.92508 15.0922 2.08268C15.467 2.24027 15.8006 2.4818 16.0673 2.78865C16.334 3.09549 16.5268 3.45948 16.6306 3.85255C16.7345 4.24562 16.7468 4.6573 16.6665 5.05586C16.5862 5.45442 16.4155 5.82923 16.1675 6.15141C15.9195 6.47359 15.6009 6.73455 15.2362 6.91418C14.8714 7.09381 14.4703 7.18732 14.0638 7.1875ZM15.0013 9.6875C15.0013 9.09625 14.7956 8.55312 14.4531 8.125H16.5638C16.9782 8.125 17.3756 8.28962 17.6686 8.58265C17.9616 8.87567 18.1263 9.2731 18.1263 9.6875V14.0625C18.1264 14.68 17.9857 15.2895 17.715 15.8445C17.4443 16.3995 17.0506 16.8855 16.5638 17.2655C16.0771 17.6455 15.5101 17.9096 14.906 18.0376C14.3019 18.1657 13.6766 18.1543 13.0775 18.0044C13.677 17.5371 14.1619 16.9391 14.4953 16.256C14.8287 15.5728 15.0017 14.8226 15.0013 14.0625V9.6875ZM3.4375 8.125C3.0231 8.125 2.62567 8.28962 2.33265 8.58265C2.03962 8.87567 1.875 9.2731 1.875 9.6875V14.0625C1.875 15.1399 2.30301 16.1733 3.06488 16.9351C3.82675 17.697 4.86006 18.125 5.9375 18.125C7.01494 18.125 8.04825 17.697 8.81012 16.9351C9.57199 16.1733 10 15.1399 10 14.0625V9.6875C10 9.2731 9.83538 8.87567 9.54235 8.58265C9.24933 8.28962 8.8519 8.125 8.4375 8.125H3.4375ZM5.9375 7.1875C6.64198 7.1875 7.31761 6.90765 7.81575 6.4095C8.3139 5.91136 8.59375 5.23573 8.59375 4.53125C8.59375 3.82677 8.3139 3.15114 7.81575 2.653C7.31761 2.15485 6.64198 1.875 5.9375 1.875C5.23302 1.875 4.55739 2.15485 4.05925 2.653C3.5611 3.15114 3.28125 3.82677 3.28125 4.53125C3.28125 5.23573 3.5611 5.91136 4.05925 6.4095C4.55739 6.90765 5.23302 7.1875 5.9375 7.1875Z" fill="#98A2B3"/>
</svg>
