<svg width="24" height="24" viewBox="0 0 24 24" fill="none" xmlns="http://www.w3.org/2000/svg">
<path d="M12.0015 8.625C11.4285 8.625 10.8915 8.47425 10.4265 8.2095C11.0565 7.4595 11.436 6.49275 11.436 5.4375C11.4371 4.42333 11.0795 3.44144 10.4265 2.6655C10.8508 2.42465 11.3247 2.2844 11.8117 2.25557C12.2988 2.22674 12.7859 2.31009 13.2356 2.49921C13.6854 2.68833 14.0857 2.97816 14.4058 3.34638C14.7258 3.71459 14.9571 4.15137 15.0818 4.62306C15.2064 5.09475 15.2212 5.58875 15.1248 6.06703C15.0284 6.5453 14.8236 6.99507 14.526 7.38169C14.2284 7.76831 13.8461 8.08146 13.4084 8.29702C12.9707 8.51257 12.4894 8.62478 12.0015 8.625ZM13.1265 11.625C13.1265 10.9155 12.8798 10.2637 12.4688 9.75H15.0015C15.4988 9.75 15.9757 9.94754 16.3273 10.2992C16.679 10.6508 16.8765 11.1277 16.8765 11.625V16.875C16.8767 17.616 16.7079 18.3474 16.383 19.0134C16.0581 19.6794 15.5857 20.2626 15.0016 20.7186C14.4175 21.1747 13.7371 21.4915 13.0122 21.6452C12.2873 21.7988 11.5369 21.7851 10.818 21.6052C11.5374 21.0445 12.1193 20.3269 12.5194 19.5071C12.9195 18.6874 13.1271 17.7872 13.1265 16.875V11.625ZM16.8765 8.625C16.3035 8.625 15.7665 8.47425 15.3015 8.2095C15.9315 7.4595 16.3102 6.49275 16.3102 5.4375C16.3116 4.42342 15.9543 3.44154 15.3015 2.6655C15.7258 2.42465 16.1997 2.2844 16.6867 2.25557C17.1738 2.22674 17.6609 2.31009 18.1106 2.49921C18.5604 2.68833 18.9607 2.97816 19.2808 3.34638C19.6008 3.71459 19.8321 4.15137 19.9568 4.62306C20.0814 5.09475 20.0962 5.58875 19.9998 6.06703C19.9034 6.5453 19.6986 6.99507 19.401 7.38169C19.1034 7.76831 18.7211 8.08146 18.2834 8.29702C17.8457 8.51257 17.3644 8.62478 16.8765 8.625ZM18.0015 11.625C18.0015 10.9155 17.7548 10.2637 17.3438 9.75H19.8765C20.3738 9.75 20.8507 9.94754 21.2023 10.2992C21.554 10.6508 21.7515 11.1277 21.7515 11.625V16.875C21.7517 17.616 21.5829 18.3474 21.258 19.0134C20.9331 19.6794 20.4607 20.2626 19.8766 20.7186C19.2925 21.1747 18.6121 21.4915 17.8872 21.6452C17.1623 21.7988 16.4119 21.7851 15.693 21.6052C16.4124 21.0445 16.9943 20.3269 17.3944 19.5071C17.7945 18.6874 18.0021 17.7872 18.0015 16.875V11.625ZM4.125 9.75C3.62772 9.75 3.15081 9.94754 2.79917 10.2992C2.44754 10.6508 2.25 11.1277 2.25 11.625V16.875C2.25 18.1679 2.76361 19.4079 3.67785 20.3221C4.59209 21.2364 5.83207 21.75 7.125 21.75C8.41793 21.75 9.65791 21.2364 10.5721 20.3221C11.4864 19.4079 12 18.1679 12 16.875V11.625C12 11.1277 11.8025 10.6508 11.4508 10.2992C11.0992 9.94754 10.6223 9.75 10.125 9.75H4.125ZM7.125 8.625C7.97038 8.625 8.78113 8.28918 9.3789 7.6914C9.97668 7.09363 10.3125 6.28288 10.3125 5.4375C10.3125 4.59212 9.97668 3.78137 9.3789 3.1836C8.78113 2.58583 7.97038 2.25 7.125 2.25C6.27962 2.25 5.46887 2.58583 4.8711 3.1836C4.27332 3.78137 3.9375 4.59212 3.9375 5.4375C3.9375 6.28288 4.27332 7.09363 4.8711 7.6914C5.46887 8.28918 6.27962 8.625 7.125 8.625Z" fill="#6A0DAD"/>
</svg>
