<svg width="20" height="20" viewBox="0 0 20 20" fill="none" xmlns="http://www.w3.org/2000/svg">
<path d="M14.4925 13.0583L11.1259 10H8.86754L5.50088 13.0583C4.55921 13.9083 4.25088 15.2167 4.70921 16.4C5.16754 17.575 6.28421 18.3333 7.54254 18.3333H12.4509C13.7175 18.3333 14.8259 17.575 15.2842 16.4C15.7425 15.2167 15.4342 13.9083 14.4925 13.0583ZM11.5175 15.1167H8.48421C8.16754 15.1167 7.91754 14.8583 7.91754 14.55C7.91754 14.2417 8.17588 13.9833 8.48421 13.9833H11.5175C11.8342 13.9833 12.0842 14.2417 12.0842 14.55C12.0842 14.8583 11.8259 15.1167 11.5175 15.1167Z" fill="#98A2B3"/>
<path d="M15.2909 3.60008C14.8326 2.42508 13.7159 1.66675 12.4576 1.66675H7.54091C6.28257 1.66675 5.16591 2.42508 4.70757 3.60008C4.25757 4.78341 4.56591 6.09175 5.50757 6.94175L8.87424 10.0001H11.1326L14.4992 6.94175C15.4326 6.09175 15.7409 4.78341 15.2909 3.60008ZM11.5159 6.02508H8.48257C8.16591 6.02508 7.9159 5.76675 7.9159 5.45841C7.9159 5.15008 8.17424 4.89175 8.48257 4.89175H11.5159C11.8326 4.89175 12.0826 5.15008 12.0826 5.45841C12.0826 5.76675 11.8242 6.02508 11.5159 6.02508Z" fill="#98A2B3"/>
</svg>
