<svg width="25" height="24" viewBox="0 0 25 24" fill="none" xmlns="http://www.w3.org/2000/svg">
<path d="M6 10C7.933 10 9.5 8.433 9.5 6.5C9.5 4.567 7.933 3 6 3C4.067 3 2.5 4.567 2.5 6.5C2.5 8.433 4.067 10 6 10Z" fill="#98A2B3"/>
<path d="M6 21C7.933 21 9.5 19.433 9.5 17.5C9.5 15.567 7.933 14 6 14C4.067 14 2.5 15.567 2.5 17.5C2.5 19.433 4.067 21 6 21Z" fill="#98A2B3"/>
<path d="M15.7491 11.98L22.9491 6.60003C23.2791 6.35003 23.3491 5.88003 23.0991 5.55003C22.8491 5.22003 22.3791 5.15003 22.0491 5.40003L14.4991 11.05L8.9491 6.89003C8.6191 6.65003 8.1491 6.71003 7.8991 7.04003C7.6491 7.37003 7.7191 7.84003 8.0491 8.09003L13.2491 11.98L7.3491 16.4C7.0191 16.65 6.9491 17.12 7.1991 17.45C7.3491 17.65 7.5691 17.75 7.7991 17.75C7.9591 17.75 8.1091 17.7 8.2491 17.6L14.4991 12.92L22.0491 18.57C22.1791 18.67 22.3391 18.72 22.4991 18.72C22.7291 18.72 22.9491 18.62 23.0991 18.42C23.3491 18.09 23.2791 17.62 22.9491 17.37L15.7491 11.98Z" fill="#98A2B3"/>
</svg>
