<svg width="24" height="24" viewBox="0 0 24 24" fill="none" xmlns="http://www.w3.org/2000/svg">
<path d="M5.5 10C7.433 10 9 8.433 9 6.5C9 4.567 7.433 3 5.5 3C3.567 3 2 4.567 2 6.5C2 8.433 3.567 10 5.5 10Z" fill="#2F034E"/>
<path d="M5.5 21C7.433 21 9 19.433 9 17.5C9 15.567 7.433 14 5.5 14C3.567 14 2 15.567 2 17.5C2 19.433 3.567 21 5.5 21Z" fill="#2F034E"/>
<path d="M15.2511 11.98L22.4511 6.6C22.7811 6.35 22.8511 5.88 22.6011 5.55C22.3511 5.22 21.8811 5.15 21.5511 5.4L14.0011 11.05L8.45105 6.89C8.12105 6.65 7.65105 6.71 7.40105 7.04C7.15105 7.37 7.22105 7.84 7.55105 8.09L12.7511 11.98L6.85105 16.4C6.52105 16.65 6.45105 17.12 6.70105 17.45C6.85105 17.65 7.07105 17.75 7.30105 17.75C7.46105 17.75 7.61105 17.7 7.75105 17.6L14.0011 12.92L21.5511 18.57C21.6811 18.67 21.8411 18.72 22.0011 18.72C22.2311 18.72 22.4511 18.62 22.6011 18.42C22.8511 18.09 22.7811 17.62 22.4511 17.37L15.2511 11.98Z" fill="#2F034E"/>
</svg>
