<svg width="24" height="24" viewBox="0 0 24 24" fill="none" xmlns="http://www.w3.org/2000/svg">
<path d="M11.5 21C16.7467 21 21 16.7467 21 11.5C21 6.25329 16.7467 2 11.5 2C6.25329 2 2 6.25329 2 11.5C2 16.7467 6.25329 21 11.5 21Z" fill="#2F034E"/>
<path d="M21.2986 22C21.1186 22 20.9386 21.93 20.8086 21.8L18.9486 19.94C18.6786 19.67 18.6786 19.23 18.9486 18.95C19.2186 18.68 19.6586 18.68 19.9386 18.95L21.7986 20.81C22.0686 21.08 22.0686 21.52 21.7986 21.8C21.6586 21.93 21.4786 22 21.2986 22Z" fill="#2F034E"/>
</svg>
