<svg width="17" height="19" viewBox="0 0 17 19" fill="none" xmlns="http://www.w3.org/2000/svg">
<path d="M11.4673 2H5.53143C2.9531 2 1.41602 3.6275 1.41602 6.3575V12.635C1.41602 15.3725 2.9531 17 5.53143 17H11.4602C14.0385 17 15.5756 15.3725 15.5756 12.6425V6.3575C15.5827 3.6275 14.0456 2 11.4673 2ZM13.1248 9.8975L10.086 13.115C9.97977 13.2275 9.84518 13.28 9.7106 13.28C9.57602 13.28 9.44143 13.2275 9.33518 13.115C9.12977 12.8975 9.12977 12.5375 9.33518 12.32L11.4673 10.0625H4.24935C3.95893 10.0625 3.7181 9.8075 3.7181 9.5C3.7181 9.1925 3.95893 8.9375 4.24935 8.9375H11.4673L9.33518 6.68C9.12977 6.4625 9.12977 6.1025 9.33518 5.885C9.5406 5.6675 9.8806 5.6675 10.086 5.885L13.1248 9.1025C13.2239 9.2075 13.2806 9.35 13.2806 9.5C13.2806 9.65 13.2239 9.7925 13.1248 9.8975Z" fill="#2E1702"/>
</svg>
