<svg width="24" height="23" viewBox="0 0 24 23" fill="none" xmlns="http://www.w3.org/2000/svg">
<path d="M17.8976 8.02041L9.79497 4.00041C4.35219 1.29536 2.11828 3.51199 4.8444 8.9127L5.66792 10.547C5.90456 11.026 5.90456 11.5802 5.66792 12.0592L4.8444 13.6841C2.11828 19.0848 4.34272 21.3014 9.79497 18.5964L17.8976 14.5764C21.5325 12.773 21.5325 9.82377 17.8976 8.02041ZM14.8402 12.0028H9.72871C9.34062 12.0028 9.01878 11.6835 9.01878 11.2984C9.01878 10.9133 9.34062 10.594 9.72871 10.594H14.8402C15.2283 10.594 15.5501 10.9133 15.5501 11.2984C15.5501 11.6835 15.2283 12.0028 14.8402 12.0028Z" fill="#6A0DAD"/>
</svg>
