<svg width="33" height="32" viewBox="0 0 33 32" fill="none" xmlns="http://www.w3.org/2000/svg">
<path fill-rule="evenodd" clip-rule="evenodd" d="M18.9034 7.11111C18.9034 4.65651 20.9023 2.66666 23.368 2.66666C25.8338 2.66666 27.8327 4.65651 27.8327 7.11111C27.8327 9.56571 25.8338 11.5556 23.368 11.5556C22.123 11.5556 20.9977 11.0479 20.1888 10.2313L14.0082 14.4394C14.0654 14.7233 14.0953 15.0166 14.0953 15.3162C14.0953 15.9096 13.9781 16.4768 13.7655 16.9951L20.5425 21.4477C21.3116 20.8214 22.2958 20.4444 23.368 20.4444C25.8338 20.4444 27.8327 22.4343 27.8327 24.8889C27.8327 27.3435 25.8338 29.3333 23.368 29.3333C20.9023 29.3333 18.9034 27.3435 18.9034 24.8889C18.9034 24.246 19.041 23.634 19.2883 23.0815L12.5661 18.6649C11.782 19.3464 10.7548 19.7607 9.63066 19.7607C7.16491 19.7607 5.16602 17.7708 5.16602 15.3162C5.16602 12.8616 7.16491 10.8718 9.63066 10.8718C11.0486 10.8718 12.3107 11.5297 13.1279 12.5536L19.1179 8.47523C18.9786 8.04479 18.9034 7.58613 18.9034 7.11111Z" fill="#2F034E"/>
</svg>
