<svg width="33" height="32" viewBox="0 0 33 32" fill="none" xmlns="http://www.w3.org/2000/svg">
<path d="M12.7037 7.21099C14.393 4.18166 15.237 2.66699 16.4997 2.66699C17.7623 2.66699 18.6063 4.18166 20.2957 7.21099L20.733 7.99499C21.213 8.85633 21.453 9.28699 21.8263 9.57099C22.1997 9.85499 22.6663 9.96033 23.5997 10.171L24.4477 10.363C27.7277 11.1057 29.3663 11.4763 29.757 12.731C30.1463 13.9843 29.029 15.2923 26.793 17.907L26.2143 18.583C25.5797 19.3257 25.261 19.6977 25.1183 20.1563C24.9757 20.6163 25.0237 21.1123 25.1197 22.103L25.2077 23.0057C25.545 26.495 25.7143 28.239 24.693 29.0137C23.6717 29.7883 22.1357 29.0817 19.0663 27.6683L18.2703 27.303C17.3983 26.9003 16.9623 26.7003 16.4997 26.7003C16.037 26.7003 15.601 26.9003 14.729 27.303L13.9343 27.6683C10.8637 29.0817 9.32766 29.7883 8.30766 29.015C7.285 28.239 7.45433 26.495 7.79166 23.0057L7.87966 22.1043C7.97566 21.1123 8.02366 20.6163 7.87966 20.1577C7.73833 19.6977 7.41966 19.3257 6.785 18.5843L6.20633 17.907C3.97033 15.2937 2.853 13.9857 3.24233 12.731C3.63166 11.4763 5.273 11.1043 8.553 10.363L9.401 10.171C10.333 9.96033 10.7983 9.85499 11.173 9.57099C11.5477 9.28699 11.7863 8.85633 12.2663 7.99499L12.7037 7.21099Z" fill="url(#paint0_linear_774_143526)"/>
<defs>
<linearGradient id="paint0_linear_774_143526" x1="29.8333" y1="16.0002" x2="3.16602" y2="16.0002" gradientUnits="userSpaceOnUse">
<stop stop-color="#6B0EAE"/>
<stop offset="1" stop-color="#FEB200"/>
</linearGradient>
</defs>
</svg>
