<svg width="18" height="18" viewBox="0 0 18 18" fill="none" xmlns="http://www.w3.org/2000/svg">
<path d="M6.62704 3.50666C7.68288 1.61332 8.21038 0.666656 8.99954 0.666656C9.78871 0.666656 10.3162 1.61332 11.372 3.50666L11.6454 3.99666C11.9454 4.53499 12.0954 4.80416 12.3287 4.98166C12.562 5.15916 12.8537 5.22499 13.437 5.35666L13.967 5.47666C16.017 5.94082 17.0412 6.17249 17.2854 6.95666C17.5287 7.73999 16.8304 8.55749 15.4329 10.1917L15.0712 10.6142C14.6745 11.0783 14.4754 11.3108 14.3862 11.5975C14.297 11.885 14.327 12.195 14.387 12.8142L14.442 13.3783C14.6529 15.5592 14.7587 16.6492 14.1204 17.1333C13.482 17.6175 12.522 17.1758 10.6037 16.2925L10.1062 16.0642C9.56121 15.8125 9.28871 15.6875 8.99954 15.6875C8.71038 15.6875 8.43788 15.8125 7.89288 16.0642L7.39621 16.2925C5.47704 17.1758 4.51704 17.6175 3.87954 17.1342C3.24038 16.6492 3.34621 15.5592 3.55704 13.3783L3.61204 12.815C3.67204 12.195 3.70204 11.885 3.61204 11.5983C3.52371 11.3108 3.32454 11.0783 2.92788 10.615L2.56621 10.1917C1.16871 8.55832 0.470378 7.74082 0.713711 6.95666C0.957045 6.17249 1.98288 5.93999 4.03288 5.47666L4.56288 5.35666C5.14538 5.22499 5.43621 5.15916 5.67038 4.98166C5.90454 4.80416 6.05371 4.53499 6.35371 3.99666L6.62704 3.50666Z" fill="#F79009"/>
</svg>
