<svg width="612" height="535" viewBox="0 0 612 535" fill="none" xmlns="http://www.w3.org/2000/svg">
<g filter="url(#filter0_dd_774_7705)">
<path d="M33.1094 2C33.8043 5.42328 36.8306 7.99991 40.459 8C44.0874 8 47.1136 5.42331 47.8086 2H62.2754C62.9703 5.42324 65.9967 7.99982 69.625 8C73.2534 8 76.2796 5.42329 76.9746 2H91.4424C92.1373 5.42329 95.1636 8 98.792 8C102.42 7.9998 105.447 5.42324 106.142 2H120.608C121.303 5.4233 124.33 8 127.958 8C131.586 7.99989 134.613 5.42328 135.308 2H149.774C150.469 5.42332 153.496 8 157.124 8C160.752 7.99998 163.779 5.42332 164.474 2H178.94C179.635 5.4233 182.662 7.99994 186.29 8C189.918 8 192.945 5.42331 193.64 2H208.106C208.801 5.42326 211.828 7.99985 215.456 8C219.084 8 222.111 5.42329 222.806 2H237.273C237.968 5.42328 240.995 8 244.623 8C248.251 7.99978 251.277 5.42313 251.972 2H266.439C267.134 5.4233 270.161 8 273.789 8C277.417 7.99987 280.444 5.42327 281.139 2H295.605C296.3 5.42332 299.327 8 302.955 8C306.583 7.99996 309.61 5.42331 310.305 2H324.771C325.466 5.42331 328.493 7.99996 332.121 8C335.75 8 338.776 5.42332 339.471 2H353.938C354.632 5.42327 357.659 7.99987 361.287 8C364.915 8 367.942 5.4233 368.637 2H383.104C383.798 5.42323 386.825 7.99978 390.453 8C394.082 8 397.108 5.42328 397.803 2H412.271C412.965 5.42329 415.992 8 419.62 8C423.248 7.99984 426.275 5.42325 426.97 2H441.437C442.131 5.42331 445.158 8 448.786 8C452.414 7.99993 455.441 5.42329 456.136 2H470.603C471.297 5.42332 474.324 7.99999 477.952 8C481.581 8 484.607 5.42332 485.302 2H499.769C500.463 5.42328 503.49 7.9999 507.118 8C510.747 8 513.773 5.4233 514.468 2H528.935C529.629 5.42323 532.656 7.9998 536.284 8C539.913 8 542.939 5.42328 543.634 2H558.102C558.797 5.42329 561.823 8 565.451 8C569.079 7.99983 572.106 5.42325 572.801 2H587.268C587.963 5.42331 590.989 8 594.617 8C598.246 7.99994 601.272 5.4233 601.967 2H606V525H603.643C602.948 521.577 599.921 519 596.293 519C592.665 519 589.638 521.577 588.943 525H574.477C573.782 521.577 570.755 519 567.127 519C563.499 519 560.472 521.577 559.777 525H545.31C544.615 521.577 541.588 519 537.96 519C534.332 519 531.305 521.577 530.61 525H516.144C515.449 521.577 512.422 519 508.794 519C505.166 519 502.139 521.577 501.444 525H486.978C486.283 521.577 483.256 519 479.628 519C476 519 472.973 521.577 472.278 525H457.812C457.117 521.577 454.09 519 450.462 519C446.834 519 443.807 521.577 443.112 525H428.646C427.951 521.577 424.924 519 421.296 519C417.668 519 414.641 521.577 413.946 525H399.479C398.784 521.577 395.757 519 392.129 519C388.501 519 385.474 521.577 384.779 525H370.312C369.618 521.577 366.591 519 362.963 519C359.335 519 356.308 521.577 355.613 525H341.146C340.452 521.577 337.425 519 333.797 519C330.168 519 327.142 521.577 326.447 525H311.98C311.286 521.577 308.259 519 304.631 519C301.002 519 297.976 521.577 297.281 525H282.814C282.12 521.577 279.093 519 275.465 519C271.836 519 268.81 521.577 268.115 525H253.647C252.953 521.577 249.927 519 246.299 519C242.67 519 239.644 521.577 238.949 525H224.481C223.786 521.577 220.76 519 217.132 519C213.504 519 210.477 521.577 209.782 525H195.315C194.62 521.577 191.594 519 187.966 519C184.337 519 181.311 521.577 180.616 525H166.149C165.454 521.577 162.428 519 158.8 519C155.171 519 152.145 521.577 151.45 525H136.983C136.288 521.577 133.262 519 129.634 519C126.005 519 122.979 521.577 122.284 525H107.817C107.123 521.577 104.096 519 100.468 519C96.8394 519 93.8131 521.577 93.1182 525H78.6504C77.9554 521.577 74.9292 519 71.3008 519C67.6725 519 64.6461 521.577 63.9512 525H49.4844C48.7894 521.577 45.7632 519 42.1348 519C38.5064 519 35.4801 521.577 34.7852 525H20.3184C19.6234 521.577 16.5972 519 12.9688 519C9.80591 519 7.10253 520.959 6 523.729V5.81348C7.35641 7.16469 9.22712 8 11.293 8C14.9214 8 17.9476 5.42333 18.6426 2H33.1094Z" fill="#F4E2FE"/>
</g>
<defs>
<filter id="filter0_dd_774_7705" x="0" y="0" width="612" height="535" filterUnits="userSpaceOnUse" color-interpolation-filters="sRGB">
<feFlood flood-opacity="0" result="BackgroundImageFix"/>
<feColorMatrix in="SourceAlpha" type="matrix" values="0 0 0 0 0 0 0 0 0 0 0 0 0 0 0 0 0 0 127 0" result="hardAlpha"/>
<feMorphology radius="2" operator="erode" in="SourceAlpha" result="effect1_dropShadow_774_7705"/>
<feOffset dy="2"/>
<feGaussianBlur stdDeviation="2"/>
<feColorMatrix type="matrix" values="0 0 0 0 0.0627451 0 0 0 0 0.0941176 0 0 0 0 0.156863 0 0 0 0.06 0"/>
<feBlend mode="normal" in2="BackgroundImageFix" result="effect1_dropShadow_774_7705"/>
<feColorMatrix in="SourceAlpha" type="matrix" values="0 0 0 0 0 0 0 0 0 0 0 0 0 0 0 0 0 0 127 0" result="hardAlpha"/>
<feMorphology radius="2" operator="erode" in="SourceAlpha" result="effect2_dropShadow_774_7705"/>
<feOffset dy="4"/>
<feGaussianBlur stdDeviation="4"/>
<feColorMatrix type="matrix" values="0 0 0 0 0.0627451 0 0 0 0 0.0941176 0 0 0 0 0.156863 0 0 0 0.1 0"/>
<feBlend mode="normal" in2="effect1_dropShadow_774_7705" result="effect2_dropShadow_774_7705"/>
<feBlend mode="normal" in="SourceGraphic" in2="effect2_dropShadow_774_7705" result="shape"/>
</filter>
</defs>
</svg>
