<svg width="20" height="20" viewBox="0 0 20 20" fill="none" xmlns="http://www.w3.org/2000/svg">
<path d="M17.9677 8.95L16.8344 7.63333C16.6177 7.38333 16.4427 6.91667 16.4427 6.58333V5.16666C16.4427 4.28333 15.7177 3.55833 14.8344 3.55833H13.4177C13.0927 3.55833 12.6177 3.38333 12.3677 3.16666L11.051 2.03333C10.476 1.54166 9.53438 1.54166 8.95104 2.03333L7.64271 3.175C7.39271 3.38333 6.91771 3.55833 6.59271 3.55833H5.15104C4.26771 3.55833 3.54271 4.28333 3.54271 5.16666V6.59166C3.54271 6.91666 3.36771 7.38333 3.15937 7.63333L2.03438 8.95833C1.55104 9.53333 1.55104 10.4667 2.03438 11.0417L3.15937 12.3667C3.36771 12.6167 3.54271 13.0833 3.54271 13.4083V14.8333C3.54271 15.7167 4.26771 16.4417 5.15104 16.4417H6.59271C6.91771 16.4417 7.39271 16.6167 7.64271 16.8333L8.95938 17.9667C9.53438 18.4583 10.476 18.4583 11.0594 17.9667L12.376 16.8333C12.626 16.6167 13.0927 16.4417 13.426 16.4417H14.8427C15.726 16.4417 16.451 15.7167 16.451 14.8333V13.4167C16.451 13.0917 16.626 12.6167 16.8427 12.3667L17.976 11.05C18.4594 10.475 18.4594 9.525 17.9677 8.95ZM13.4677 8.425L9.44271 12.45C9.32604 12.5667 9.16771 12.6333 9.00104 12.6333C8.83438 12.6333 8.67604 12.5667 8.55938 12.45L6.54271 10.4333C6.30104 10.1917 6.30104 9.79167 6.54271 9.55C6.78438 9.30833 7.18437 9.30833 7.42604 9.55L9.00104 11.125L12.5844 7.54167C12.826 7.3 13.226 7.3 13.4677 7.54167C13.7094 7.78333 13.7094 8.18333 13.4677 8.425Z" fill="#667085"/>
</svg>
