<svg width="24" height="25" viewBox="0 0 24 25" fill="none" xmlns="http://www.w3.org/2000/svg">
<path d="M11.9392 2.56136L9.52922 8.17136H7.11922C6.71922 8.17136 6.32922 8.20136 5.94922 8.28136L6.94922 5.88136L6.98922 5.79136L7.04922 5.63136C7.07922 5.56136 7.09922 5.50136 7.12922 5.45136C8.28922 2.76136 9.58922 1.92136 11.9392 2.56136Z" fill="#98A2B3"/>
<path d="M18.7311 8.44134L18.7111 8.43134C18.1111 8.26134 17.5011 8.17134 16.8811 8.17134H10.6211L12.8711 2.94134L12.9011 2.87134C13.0411 2.92134 13.1911 2.99134 13.3411 3.04134L15.5511 3.97134C16.7811 4.48134 17.6411 5.01134 18.1711 5.65134C18.2611 5.77134 18.3411 5.88134 18.4211 6.01134C18.5111 6.15134 18.5811 6.29134 18.6211 6.44134C18.6611 6.53134 18.6911 6.61134 18.7111 6.70134C18.8611 7.21134 18.8711 7.79134 18.7311 8.44134Z" fill="#98A2B3"/>
<path d="M18.2883 9.87136C17.8383 9.74136 17.3683 9.67136 16.8783 9.67136H7.11828C6.43828 9.67136 5.79828 9.80136 5.19828 10.0614C3.45828 10.8114 2.23828 12.5414 2.23828 14.5514V16.5014C2.23828 16.7414 2.25828 16.9714 2.28828 17.2114C2.50828 20.3914 4.20828 22.0914 7.38828 22.3014C7.61828 22.3314 7.84828 22.3514 8.09828 22.3514H15.8983C19.5983 22.3514 21.5483 20.5914 21.7383 17.0914C21.7483 16.9014 21.7583 16.7014 21.7583 16.5014V14.5514C21.7583 12.3414 20.2883 10.4814 18.2883 9.87136ZM14.4983 16.5414H12.7483V18.3514C12.7483 18.7614 12.4083 19.1014 11.9983 19.1014C11.5883 19.1014 11.2483 18.7614 11.2483 18.3514V16.5414H9.49828C9.08828 16.5414 8.74828 16.2114 8.74828 15.7914C8.74828 15.3814 9.08828 15.0414 9.49828 15.0414H11.2483V13.3514C11.2483 12.9414 11.5883 12.6014 11.9983 12.6014C12.4083 12.6014 12.7483 12.9414 12.7483 13.3514V15.0414H14.4983C14.9083 15.0414 15.2483 15.3814 15.2483 15.7914C15.2483 16.2114 14.9083 16.5414 14.4983 16.5414Z" fill="#98A2B3"/>
</svg>
