<svg width="120" height="120" viewBox="0 0 120 120" fill="none" xmlns="http://www.w3.org/2000/svg">
<path d="M59.7 11.05L47.65 39.1H35.6C33.6 39.1 31.65 39.25 29.75 39.65L34.75 27.65L34.95 27.2L35.25 26.4C35.4 26.05 35.5 25.75 35.65 25.5C41.45 12.05 47.95 7.85001 59.7 11.05Z" fill="#6A0DAD"/>
<path d="M93.6516 40.45L93.5516 40.4C90.5516 39.55 87.5016 39.1 84.4016 39.1H53.1016L64.3516 12.95L64.5016 12.6C65.2016 12.85 65.9516 13.2 66.7016 13.45L77.7516 18.1C83.9016 20.65 88.2016 23.3 90.8516 26.5C91.3016 27.1 91.7016 27.65 92.1016 28.3C92.5516 29 92.9016 29.7 93.1016 30.45C93.3016 30.9 93.4516 31.3 93.5516 31.75C94.3016 34.3 94.3516 37.2 93.6516 40.45Z" fill="#6A0DAD"/>
<path d="M91.4531 47.6C89.2031 46.95 86.8531 46.6 84.4031 46.6H35.6031C32.2031 46.6 29.0031 47.25 26.0031 48.55C17.3031 52.3 11.2031 60.95 11.2031 71V80.75C11.2031 81.95 11.3031 83.1 11.4531 84.3C12.5531 100.2 21.0531 108.7 36.9531 109.75C38.1031 109.9 39.2531 110 40.5031 110H79.5031C98.0031 110 107.753 101.2 108.703 83.7C108.753 82.75 108.803 81.75 108.803 80.75V71C108.803 59.95 101.453 50.65 91.4531 47.6ZM72.5031 80.95H63.7531V90C63.7531 92.05 62.0531 93.75 60.0031 93.75C57.9531 93.75 56.2531 92.05 56.2531 90V80.95H47.5031C45.4531 80.95 43.7531 79.3 43.7531 77.2C43.7531 75.15 45.4531 73.45 47.5031 73.45H56.2531V65C56.2531 62.95 57.9531 61.25 60.0031 61.25C62.0531 61.25 63.7531 62.95 63.7531 65V73.45H72.5031C74.5531 73.45 76.2531 75.15 76.2531 77.2C76.2531 79.3 74.5531 80.95 72.5031 80.95Z" fill="#6A0DAD"/>
</svg>
