<svg width="21" height="20" viewBox="0 0 21 20" fill="none" xmlns="http://www.w3.org/2000/svg">
<path d="M14.1667 3.125H7.5C7.15833 3.125 6.875 2.84167 6.875 2.5C6.875 2.15833 7.15833 1.875 7.5 1.875H14.1667C14.5083 1.875 14.7917 2.15833 14.7917 2.5C14.7917 2.84167 14.5083 3.125 14.1667 3.125Z" fill="#667085"/>
<path d="M14.1667 18.125H7.5C7.15833 18.125 6.875 17.8417 6.875 17.5C6.875 17.1583 7.15833 16.875 7.5 16.875H14.1667C14.5083 16.875 14.7917 17.1583 14.7917 17.5C14.7917 17.8417 14.5083 18.125 14.1667 18.125Z" fill="#667085"/>
<path d="M13.75 4.16666H7.91667C5.975 4.16666 5 5.14166 5 7.08332V12.9167C5 14.8583 5.975 15.8333 7.91667 15.8333H13.75C15.6917 15.8333 16.6667 14.8583 16.6667 12.9167V7.08332C16.6667 5.14166 15.6917 4.16666 13.75 4.16666ZM12.9167 11.0417H10.4167C10.075 11.0417 9.79167 10.7583 9.79167 10.4167V7.91666C9.79167 7.57499 10.075 7.29166 10.4167 7.29166C10.7583 7.29166 11.0417 7.57499 11.0417 7.91666V9.79166H12.9167C13.2583 9.79166 13.5417 10.075 13.5417 10.4167C13.5417 10.7583 13.2583 11.0417 12.9167 11.0417Z" fill="#667085"/>
</svg>
